<?xml version="1.0" encoding="UTF-8"?><svg id="Camada_2" xmlns="http://www.w3.org/2000/svg" viewBox="0 0 1993.24 400"><defs><style>.cls-1{fill:#f080e0;}.cls-2{fill:#be40e0;}.cls-3{fill:#8c00e0;}</style></defs><g id="Camada_1-2"><path class="cls-3" d="M571.81,331.91c-10.41-7.43-19.07-13.46-21.22-11.15-2.1,2.21,3.29,12.75,13.88,21.64,10.54,8.97,22.12,11.44,24.04,7.69,1.97-3.79-6.34-10.74-16.71-18.18Z"/><path class="cls-3" d="M539.78,336.47c-9.45-9.95-17.2-15.95-18.84-11.98-1.59,3.91,4.13,16.62,14.23,27.12,10.07,10.58,20.21,14.24,21.14,9.7.98-4.55-7.11-14.87-16.53-24.84Z"/><path class="cls-3" d="M507.99,336.97c-8.94-10.56-16.35-14.83-17.6-8.68,1.06,11.84,6.38,22.9,14.98,31.12,9.94,10.78,19.04,13.57,19.26,7.26-2.78-11.21-8.52-21.47-16.63-29.69Z"/><path class="cls-3" d="M475.52,337.22c-8.86-10.05-16.32-11.73-17.25-3.31.99,12.91,6.73,25,16.12,33.92,10.07,10.18,18.51,10.96,18.2,2.44-2.49-12.4-8.4-23.85-17.07-33.05Z"/><path class="cls-3" d="M441.74,338.44c-9.11-8.89-16.89-7.73-17.55,2.87.84,13.81,7.15,26.71,17.53,35.85,10.44,9.12,18.55,7.33,17.87-3.44-2.07-13.35-8.32-25.7-17.85-35.28Z"/><path class="cls-3" d="M406.21,340.61c-9.61-7.48-17.93-3.54-18.41,8.99.58,14.6,7.56,28.2,19.08,37.18,11,7.92,19.11,3.42,18.22-9.52-1.53-14.14-8.26-27.2-18.89-36.66Z"/><path class="cls-3" d="M369.68,346.18c-9.88-7.54-18.78-3.7-19.82,8.65.07,14.61,6.84,28.38,18.36,37.37,11.19,8.27,20.06,4.1,19.78-8.94-.91-14.31-7.51-27.65-18.31-37.07Z"/><path class="cls-3" d="M331.03,352.9c-9.98-8.4-19.34-6.35-21.09,4.45-.32,14,5.86,27.37,16.73,36.19,11.1,9.3,20.83,7.34,21.42-4.34-.49-13.92-6.65-27.04-17.07-36.3Z"/><path class="cls-3" d="M289.89,357.61c-9.92-9.26-19.6-9.11-22,.01-.76,13.22,4.75,26.02,14.88,34.54,10.81,10.17,21.18,10.52,22.66.5-.02-13.35-5.66-26.07-15.54-35.05Z"/><path class="cls-3" d="M246.8,359.85c-9.48-10.4-19.28-12.55-22.45-5.35-1.56,12.21,2.94,24.42,12.06,32.69,10.08,11.16,20.88,14.25,23.4,6.28.77-12.57-3.98-24.85-13.01-33.63Z"/><path class="cls-3" d="M201.31,358.37c-8.91-10.89-18.48-14.65-22-9.06-3.48,5.61.66,18.83,9.92,30.25,9.26,11.42,19.87,16.3,23.01,10.14,3.15-6.13-2.03-20.49-10.92-31.33Z"/><path class="cls-3" d="M154.66,353.69c-8.1-11.12-17.19-16.23-20.84-12.03-3.62,4.21-.37,16.32,7.84,27.73,8.19,11.38,18.25,17.61,21.76,13.11,3.51-4.5-.68-17.7-8.76-28.81Z"/><path class="cls-3" d="M107.85,346.45c-7.14-11.17-15.48-17.35-19.08-14.34-3.57,3.04-1.06,14.23,6.02,25.46,7.08,11.23,16.17,18.3,19.78,15.18,3.61-3.12.39-15.18-6.73-26.3Z"/><path class="cls-3" d="M61.92,337.43c-6.14-11.15-13.63-18.31-17-16.25-3.37,2.06-1.38,12.6,4.64,23.75,6.01,11.15,13.94,18.76,17.42,16.71,3.47-2.06,1.07-13.06-5.06-24.2Z"/><ellipse class="cls-3" cx="12.15" cy="329.45" rx="6.03" ry="22.73" transform="translate(-121.72 28.18) rotate(-21.84)"/><path class="cls-2" d="M537.54,275.03c-5.53-10.36-10.41-18.32-12.65-16.55-2.18,1.72-.5,12.99,5.48,24.09,5.95,11.15,13.55,17.11,15.3,14.62,1.78-2.53-2.64-11.76-8.13-22.16Z"/><path class="cls-2" d="M512.76,271.53c-5.37-11.22-10.55-18.02-12.93-14.34-1.58,9.77.56,19.77,5.99,28.04,6.2,11.54,13.5,16.93,14.98,12.97-.37-9.43-3.14-18.61-8.04-26.67Z"/><path class="cls-2" d="M485.69,267.8c-5.59-11.06-11.44-15.77-13.94-9.97-1.65,10.84.86,21.91,7.03,30.98,6.72,11.14,13.97,14.91,15.3,9.08-.15-10.59-3.04-20.96-8.39-30.09Z"/><path class="cls-2" d="M456.2,265.15c-6.14-10.23-12.88-12.34-15.43-4.42-1.7,11.69,1.37,23.58,8.53,32.98,7.42,10.24,14.83,11.82,16.08,3.92.14-11.49-3.04-22.77-9.18-32.48Z"/><path class="cls-2" d="M424.29,263.88c-6.93-8.98-14.66-8.31-17.2,1.59-1.79,12.38,1.99,24.92,10.33,34.24,8.26,9.04,15.98,8.1,17.2-1.79.52-12.19-3.12-24.2-10.33-34.04Z"/><path class="cls-2" d="M390.04,263.78c-7.9-7.51-16.63-4.15-19.13,7.47-1.95,12.96,2.65,26.05,12.28,34.95,9.18,7.74,17.39,4.28,18.62-7.53.98-12.74-3.27-25.34-11.77-34.89Z"/><path class="cls-2" d="M354.11,267.34c-8.28-7.38-17.52-3.98-20.3,7.42-2.21,12.86,2.4,25.94,12.18,34.58,9.44,7.79,18.27,4.5,19.91-7.29,1.38-12.75-2.94-25.45-11.8-34.72Z"/><path class="cls-2" d="M316.08,272.64c-8.38-7.91-17.68-6-20.72,4.01-2.26,12.27,2.05,24.82,11.37,33.11,9.34,8.43,18.63,6.86,20.7-3.64,1.48-12.3-2.69-24.62-11.36-33.48Z"/><path class="cls-2" d="M276.22,277.07c-8.33-8.46-17.63-8.09-20.89.5-2.31,11.57,1.64,23.5,10.4,31.4,9.08,8.96,18.67,9.11,21.15.05,1.61-11.73-2.33-23.54-10.66-31.95Z"/><path class="cls-2" d="M235.13,280.42c-7.94-9.32-17.1-10.87-20.72-3.89-2.68,10.74.57,22.1,8.53,29.79,8.48,9.7,18.17,11.99,21.25,4.61,2.01-11.03-1.35-22.36-9.06-30.51Z"/><path class="cls-2" d="M192.36,281.65c-7.57-9.67-16.43-12.58-20.12-6.93-3.66,5.64-.53,17.87,7.36,27.81,7.89,9.94,17.35,13.6,20.69,7.67,2.22-10.24-.75-20.92-7.94-28.56Z"/><path class="cls-2" d="M148.73,281.06c-7.05-9.93-15.5-14.03-19.15-9.59-3.63,4.42-.99,15.85,6.21,25.92,7.2,10.07,16.2,14.88,19.68,10.28,3.48-4.6.3-16.72-6.74-26.62Z"/><path class="cls-2" d="M104.72,278.8c-6.45-10.12-14.35-15.35-17.87-11.99-3.53,3.36-1.29,14.14,5.19,24.31,6.46,10.18,14.78,15.92,18.26,12.48,3.48-3.45.87-14.71-5.58-24.8Z"/><path class="cls-2" d="M60.87,275.05c-5.81-10.35-13.1-16.66-16.41-14.25-3.32,2.41-1.4,12.74,4.37,23.12,5.77,10.38,13.28,16.92,16.63,14.47,3.35-2.45,1.22-12.98-4.59-23.34Z"/><ellipse class="cls-2" cx="12.09" cy="272.8" rx="6.27" ry="21.7" transform="translate(-124.33 36.25) rotate(-27.44)"/><path class="cls-1" d="M528.36,210.61c-1.03-11.44-2.74-20.27-5.49-19.1-2.71,1.15-4.92,12.38-3.29,24.41,1.59,12.08,5.92,19.85,8.02,18.09,2.16-7.62,2.42-15.66.75-23.4Z"/><path class="cls-1" d="M507.15,201.74c-1.49-11.8-4.5-19.21-7.95-15.93-4.34,8.75-5.28,18.79-2.64,28.19,2.45,12.07,7.39,18.49,9.81,14.98,2.44-8.89,2.71-18.23.78-27.25Z"/><path class="cls-1" d="M482.37,194.55c-2.33-11.44-6.92-16.63-10.94-11.09-4.39,9.79-4.86,20.89-1.32,31.01,3.56,11.43,9.29,15.84,12.05,10.35,2.7-9.9,2.77-20.34.21-30.28Z"/><path class="cls-1" d="M454.2,189.57c-3.49-10.51-9.75-12.98-14.18-5.22-4.41,10.55-4.2,22.47.59,32.85,4.81,10.35,11.43,12.35,14.52,4.79,2.96-10.65,2.64-21.96-.92-32.42Z"/><path class="cls-1" d="M422.94,186.81c-4.85-9.17-12.78-8.7-17.42,1.08-4.46,11.11-3.39,23.67,2.9,33.86,6.14,8.98,13.7,8.41,17.06-1.15,3.27-11.2,2.37-23.21-2.53-33.8Z"/><path class="cls-1" d="M388.93,185.96c-6.33-7.59-15.81-4.21-20.49,7.32-4.58,11.54-2.49,24.65,5.44,34.21,7.49,7.51,16.02,4.35,19.58-7.07,3.68-11.59,2.02-24.21-4.53-34.45Z"/><path class="cls-1" d="M352.45,189.49c-6.9-7.27-16.8-3.68-21.5,7.69-4.57,11.43-2.18,24.47,6.14,33.54,7.9,7.34,16.95,4.16,20.67-7.25,3.84-11.52,1.85-24.18-5.32-33.98Z"/><path class="cls-1" d="M313.69,195.54c-4.26-5.2-11.92-5.96-17.12-1.7-2.01,1.65-3.44,3.89-4.08,6.41-4.24,10.96-1.79,23.37,6.3,31.9,3.65,5.22,10.85,6.49,16.07,2.84,2.38-1.66,4.04-4.16,4.66-6.99,3.59-11.11,1.41-23.29-5.83-32.45Z"/><path class="cls-1" d="M273.45,201.5c-3.42-5.51-10.65-7.2-16.15-3.79-2.06,1.27-3.67,3.15-4.61,5.38-3.89,10.41-1.43,22.13,6.31,30.11,7.74,8.16,16.94,7.87,20.58-.99,3.35-10.61,1.04-22.2-6.12-30.72Z"/><path class="cls-1" d="M232.35,207.12c-6.8-8.7-15.81-9.63-20.08-2.46-3.81,9.79-1.7,20.89,5.42,28.61,7.29,8.83,16.36,10.39,20.15,3.09,3.31-10.04,1.23-21.08-5.49-29.23Z"/><path class="cls-1" d="M190.02,211.33c-6.64-8.99-15.26-11.2-19.31-5.31-3.51,9.19-1.49,19.57,5.19,26.79,6.95,9.07,15.75,11.87,19.47,5.88,3.14-9.43,1.11-19.81-5.35-27.36Z"/><path class="cls-1" d="M147.09,214.18c-6.38-9.24-14.6-12.67-18.42-7.95-3.82,4.72-1.66,15.84,4.88,25.14,6.54,9.29,14.94,13.22,18.58,8.43,3.64-4.78,1.32-16.38-5.04-25.62Z"/><path class="cls-1" d="M103.83,215.57c-6.03-9.52-13.78-14.12-17.35-10.48-3.57,3.64-1.57,14.21,4.54,23.76,6.1,9.56,13.99,14.49,17.48,10.8,3.5-3.68,1.36-14.58-4.67-24.09Z"/><path class="cls-1" d="M60.56,215.37c-5.64-9.87-12.86-15.65-16.19-12.98-3.31,2.66-1.45,12.83,4.19,22.75,5.64,9.92,12.93,15.83,16.25,13.11,3.32-2.72,1.39-13-4.24-22.88Z"/><ellipse class="cls-1" cx="12.06" cy="216.67" rx="6.44" ry="21.12" transform="translate(-108.21 36.04) rotate(-30.47)"/><path class="cls-2" d="M544.47,147.09c3.46-11.48,5.04-21.44,1.78-21.86-3.22-.42-9.53,9.62-12.38,21.94-2.9,12.32-1.74,21.64.89,21.24,2.66-.42,6.23-9.79,9.72-21.32Z"/><path class="cls-2" d="M526.52,127.7c2.6-12.29,1.88-21.13-2.82-18.97-7.31,7.28-11.63,17.03-12.13,27.34-1.56,12.63,1.06,20.34,4.66,17.89,5.59-7.74,9.13-16.77,10.3-26.25Z"/><path class="cls-2" d="M503.24,112.78c1.13-12.19-2.28-18.63-8.2-13.59-7.28,8.8-11.08,19.97-10.68,31.38.2,12.05,4.55,17.36,9.08,12.53,5.88-9.07,9.25-19.52,9.8-30.32Z"/><path class="cls-2" d="M474.97,103.11c-.77-11.26-6.96-14.4-13.71-6.51-7.17,9.75-10.13,21.96-8.23,33.91,2.17,10.75,8.3,13.17,13.67,5.84,6.05-9.99,8.94-21.57,8.28-33.23Z"/><path class="cls-2" d="M442.33,98.66c-2.93-9.65-11.68-9.07-18.92,1.37-7.09,10.23-8.97,23.2-5.06,35.03,4.19,8.99,12.04,8.3,18.03-1.43,6.24-10.52,8.36-22.97,5.95-34.96Z"/><path class="cls-2" d="M406.06,98.76c-5.15-7.64-16.13-3.33-23.45,9.19-7.15,10.45-7.72,24.05-1.48,35.06,6.14,7.06,15.57,3.28,21.95-8.66,6.54-10.73,7.65-23.92,2.98-35.59Z"/><path class="cls-2" d="M366.32,105.48c-6-6.98-17.31-2.06-24.25,10.4-6.88,10.36-6.75,23.87.34,34.09,6.79,6.63,16.64,2.47,22.83-9.63,6.42-10.63,6.82-23.85,1.08-34.86Z"/><path class="cls-2" d="M324.08,116.22c-6.23-7.14-16.9-3.5-23.09,7.57-6.14,10.05-5.46,22.84,1.7,32.19,6.87,6.95,16.49,4.1,22.04-6.8,5.76-10.3,5.51-22.91-.66-32.97Z"/><path class="cls-2" d="M280.82,127.54c-6.37-7.4-16.42-5.25-21.92,4.32-5.38,9.68-4.26,21.68,2.82,30.2,4.23,5.31,11.97,6.18,17.28,1.95,1.81-1.44,3.17-3.36,3.94-5.54,5.09-9.9,4.28-21.8-2.11-30.92Z"/><path class="cls-2" d="M237.28,138.57c-3.16-5.71-10.35-7.77-16.06-4.61-1.89,1.05-3.46,2.6-4.54,4.48-4.89,9.26-3.76,20.54,2.85,28.65,6.57,8.13,15.53,8.62,20.21.76,4.6-9.48,3.65-20.71-2.47-29.28Z"/><path class="cls-2" d="M193.13,147.8c-6.14-8.5-14.97-9.87-19.52-3.44-4.24,8.82-2.87,19.31,3.49,26.75,6.42,8.49,15.02,10.39,19.29,3.94,4.05-8.99,2.79-19.48-3.26-27.26Z"/><path class="cls-2" d="M148.9,154.87c-6.04-8.86-14.37-11.69-18.48-6.6-3.66,8.41-2.14,18.17,3.89,25.07,6.21,8.88,14.41,12.11,18.34,7.01,3.55-8.53,2.11-18.33-3.75-25.48Z"/><path class="cls-2" d="M104.75,159.35c-5.86-9.28-13.69-13.54-17.41-9.71-3.71,3.83-1.85,14.39,4.08,23.72,5.93,9.33,13.69,13.85,17.31,9.95,3.62-3.9,1.87-14.7-3.99-23.96Z"/><path class="cls-2" d="M60.9,160.79c-5.59-9.8-12.89-15.51-16.26-12.84-3.38,2.67-1.54,12.88,4.07,22.78,5.6,9.9,12.84,15.7,16.2,12.91,3.36-2.79,1.58-13.05-4.01-22.86Z"/><ellipse class="cls-2" cx="12.08" cy="161.71" rx="6.36" ry="21.42" transform="translate(-76.44 25.84) rotate(-28.81)"/><path class="cls-3" d="M585.89,93.55c7.95-10.27,12.78-21.23,8.94-23.96-3.79-2.72-14.15,5.13-21.39,16.82-7.3,11.7-9.3,21.86-6.22,23.19,3.13,1.3,10.67-5.74,18.67-16.05Z"/><path class="cls-3" d="M570.8,60.76c6.52-12.48,7.85-23.32,1.81-22.9-6.01.42-16.06,12.4-21.36,25.5-5.32,13.13-4.83,22.1-.04,21.1,4.81-1.05,13.03-11.18,19.59-23.7Z"/><path class="cls-3" d="M547.92,34.74c4.3-13.3,1.71-21.84-6.2-17.65-10.19,8.01-17.16,19.41-19.64,32.13-2.81,13.09.48,19.64,6.87,15.77,9.11-8.03,15.7-18.54,18.97-30.24Z"/><path class="cls-3" d="M517.91,17.1c1.54-12.73-4.98-17.35-14.22-9.36-9.84,9.64-15.73,22.59-16.53,36.34-.05,11.84,6.05,15.1,13.8,8.07,9.15-9.64,15.08-21.89,16.95-35.05Z"/><path class="cls-3" d="M481.85,8.14c-1.47-11.01-11.56-10.86-21.56.53-9.51,10.33-14.05,24.3-12.44,38.25,2.74,9.8,11.44,9.31,20.19-.82,9.11-10.53,14.03-24.04,13.82-37.96Z"/><path class="cls-3" d="M441.04,6.97c-4.5-8.51-17.57-3.52-27.75,10.58-9.42,10.38-12.4,25.08-7.78,38.32,5.35,7.38,16.31,3.1,25.67-9.85,9.21-10.76,12.86-25.2,9.86-39.04Z"/><path class="cls-3" d="M395.55,15.54c-5.63-7.41-18.98-1.21-28.43,13.02-9.46,14.19-11.14,30.41-4.93,37.02,6.25,6.61,17.57,1.53,26.46-11.89,8.86-13.38,12.55-30.74,6.9-38.15Z"/><path class="cls-3" d="M347.23,30.42c-5.93-7.29-18.21-2.22-26.37,10.47-7.92,9.91-8.91,23.68-2.49,34.62,6.39,6.77,17.1,2.87,24.81-9.33,7.81-10.27,9.36-24,4.05-35.76Z"/><path class="cls-3" d="M298.35,47.07c-6.12-7.36-17.4-3.85-24.38,7.11-6.85,9.55-6.99,22.37-.36,32.07,6.48,7.05,16.56,4.56,23.18-6.09,6.8-9.83,7.4-22.67,1.55-33.09Z"/><path class="cls-3" d="M249.86,63.89c-4.24-5.77-12.36-7.02-18.13-2.78-1.77,1.3-3.18,3.03-4.1,5.02-6.02,9.18-5.82,21.11.5,30.09,3.74,5.69,11.39,7.26,17.07,3.52,1.86-1.23,3.36-2.93,4.33-4.94,5.94-9.41,6.07-21.37.33-30.91Z"/><path class="cls-3" d="M201.58,78.79c-3.05-5.94-10.35-8.28-16.29-5.23-1.74.89-3.23,2.19-4.36,3.79-5.07,8.76-4.29,19.72,1.96,27.67,6.18,8.19,15.01,9.29,20.05,2.09,5.05-8.91,4.52-19.93-1.36-28.32Z"/><path class="cls-3" d="M154.05,90.96c-5.95-8.6-14.72-10.7-19.26-5.02-4.21,8.36-3.01,18.42,3.04,25.56,6.09,8.58,14.43,11.19,18.82,5.53,4.24-8.46,3.22-18.61-2.6-26.06Z"/><path class="cls-3" d="M107.41,99.65c-5.87-9.04-14-12.77-17.95-8.58-3.95,4.18-2.19,14.79,3.74,23.88,5.93,9.08,13.78,13.14,17.66,8.89,3.88-4.25,2.43-15.18-3.44-24.19Z"/><path class="cls-3" d="M61.86,104.06c-5.65-9.61-13.14-15.03-16.62-12.2-3.47,2.83-1.64,13.01,4.02,22.77,5.66,9.76,12.98,15.28,16.45,12.3,3.46-2.98,1.8-13.26-3.85-22.86Z"/><ellipse class="cls-3" cx="12.12" cy="106.34" rx="6.4" ry="21.43" transform="translate(-49.73 19) rotate(-28.8)"/><path d="M690.69,344.25l8.02-.79c1.47,8.39,7.34,12.58,17.62,12.58,5.3,0,9.37-.96,12.23-2.87,2.86-1.91,4.29-4.6,4.29-8.06,0-3.04-1.05-5.35-3.15-6.92s-5.51-2.86-10.23-3.85l-7.71-1.57c-6.35-1.31-10.93-3.26-13.77-5.86-2.83-2.6-4.25-6.17-4.25-10.74,0-5.35,2.01-9.56,6.02-12.62,4.01-3.07,9.56-4.6,16.64-4.6,14.16,0,22.02,5.4,23.6,16.2l-7.79.79c-.58-3.51-2.15-6.11-4.72-7.79-2.57-1.68-6.34-2.52-11.33-2.52-4.56,0-8.08.85-10.54,2.56-2.46,1.7-3.7,4.1-3.7,7.2s.89,5.11,2.67,6.53c1.78,1.47,5.09,2.7,9.91,3.7l7.63,1.49c6.61,1.36,11.39,3.42,14.36,6.17s4.44,6.33,4.44,10.74c0,5.93-2.2,10.53-6.61,13.8-4.41,3.28-10.49,4.92-18.25,4.92-14.89,0-23.36-6.16-25.41-18.49Z"/><path d="M761.24,353.77c-5.35-5.82-8.02-13.42-8.02-22.81s2.67-17.07,8.02-22.89c5.3-5.82,12.43-8.73,21.4-8.73s16.12,2.91,21.47,8.73c5.3,5.87,7.94,13.5,7.94,22.89s-2.65,17.04-7.94,22.81c-5.35,5.82-12.51,8.73-21.47,8.73s-16.05-2.91-21.4-8.73ZM782.64,355.97c6.76,0,12.04-2.28,15.81-6.84,3.78-4.56,5.66-10.62,5.66-18.17s-1.89-13.61-5.66-18.17c-3.78-4.56-9.05-6.84-15.81-6.84s-12.03,2.28-15.81,6.84c-3.78,4.56-5.66,10.62-5.66,18.17s1.89,13.61,5.66,18.17c3.78,4.56,9.05,6.84,15.81,6.84Z"/><path d="M835.96,354.64h31.46v6.53h-39.41v-60.41h7.94v53.88Z"/><path d="M883.2,357c-3.85-3.67-5.78-9.39-5.78-17.15v-39.09h8.1v39.72c0,5.3,1.25,9.14,3.74,11.52,2.49,2.39,6.54,3.58,12.15,3.58s9.65-1.18,12.11-3.54c2.46-2.36,3.7-6.21,3.7-11.56v-39.72h8.18v39.09c0,7.66-1.98,13.35-5.94,17.07-3.96,3.72-9.98,5.58-18.05,5.58s-14.36-1.83-18.21-5.51Z"/><path d="M949.23,354.01c-5.3-5.72-7.94-13.48-7.94-23.28s2.67-17.49,8.02-23.05c5.35-5.56,12.22-8.34,20.61-8.34,6.55,0,12.07,1.52,16.56,4.56,4.48,3.04,7.59,7.34,9.32,12.9l-7.63.87c-3.09-7.66-9.23-11.48-18.41-11.48-6.24,0-11.2,2.1-14.87,6.29-3.67,4.2-5.51,10.17-5.51,17.93s1.84,14.07,5.51,18.45c3.67,4.38,8.68,6.57,15.02,6.57,10.17,0,16.54-4.51,19.11-13.53l7.24.87c-1.62,6.29-4.73,11.17-9.32,14.63-4.59,3.46-10.27,5.19-17.03,5.19-8.55,0-15.44-2.86-20.69-8.57ZM962.05,383.58v-5.19h5.66c4.14,0,6.21-1.13,6.21-3.38,0-1.78-1.21-2.67-3.62-2.67h-8.26v-4.72h9.83c2.83,0,5.01.63,6.53,1.89s2.28,3.07,2.28,5.43c0,2.78-1.06,4.92-3.19,6.41-2.12,1.5-5.15,2.24-9.08,2.24h-6.37Z"/><path d="M1015.93,353.77c-5.35-5.82-8.02-13.42-8.02-22.81s2.67-17.07,8.02-22.89c5.3-5.82,12.43-8.73,21.4-8.73s16.12,2.91,21.47,8.73c5.3,5.87,7.95,13.5,7.95,22.89s-2.65,17.04-7.95,22.81c-5.35,5.82-12.51,8.73-21.47,8.73s-16.05-2.91-21.4-8.73ZM1037.33,355.97c6.76,0,12.04-2.28,15.81-6.84,3.78-4.56,5.66-10.62,5.66-18.17s-1.89-13.61-5.66-18.17c-3.78-4.56-9.05-6.84-15.81-6.84s-12.04,2.28-15.81,6.84c-3.78,4.56-5.66,10.62-5.66,18.17s1.89,13.61,5.66,18.17c3.78,4.56,9.05,6.84,15.81,6.84ZM1020.49,292.73c0-4.4.89-7.75,2.67-10.03,1.78-2.28,4.22-3.42,7.32-3.42,1.68,0,3.24.34,4.68,1.02s2.56,1.52,3.34,2.52c1.84,2.36,3.67,3.54,5.51,3.54,1.26,0,2.18-.54,2.75-1.61.58-1.08.92-2.87,1.02-5.39h6.37c0,4.46-.87,7.81-2.6,10.07s-4.2,3.38-7.39,3.38c-3.41,0-6.03-1.18-7.87-3.54-1.83-2.36-3.72-3.54-5.66-3.54-1.26,0-2.18.54-2.75,1.61-.58,1.08-.92,2.87-1.02,5.39h-6.37Z"/><path d="M1090.58,354.64h34.22v6.53h-42.08v-60.41h41.61v6.53h-33.74v19.51h31.15v6.53h-31.15v21.32Z"/><path d="M1135.33,344.25l8.02-.79c1.47,8.39,7.34,12.58,17.62,12.58,5.3,0,9.37-.96,12.23-2.87,2.86-1.91,4.29-4.6,4.29-8.06,0-3.04-1.05-5.35-3.15-6.92-2.1-1.57-5.51-2.86-10.23-3.85l-7.71-1.57c-6.35-1.31-10.93-3.26-13.77-5.86s-4.25-6.17-4.25-10.74c0-5.35,2.01-9.56,6.02-12.62,4.01-3.07,9.56-4.6,16.64-4.6,14.16,0,22.02,5.4,23.6,16.2l-7.79.79c-.58-3.51-2.15-6.11-4.72-7.79-2.57-1.68-6.34-2.52-11.33-2.52-4.56,0-8.08.85-10.54,2.56s-3.7,4.1-3.7,7.2.89,5.11,2.67,6.53c1.78,1.47,5.09,2.7,9.91,3.7l7.63,1.49c6.61,1.36,11.39,3.42,14.36,6.17s4.44,6.33,4.44,10.74c0,5.93-2.2,10.53-6.61,13.8-4.41,3.28-10.49,4.92-18.25,4.92-14.89,0-23.36-6.16-25.41-18.49Z"/><path d="M1233.26,354.64h34.22v6.53h-42.08v-60.41h41.61v6.53h-33.74v19.51h31.15v6.53h-31.15v21.32Z"/><path d="M1336.54,300.75h11.8v60.41h-7.47v-54.98l-2.2,6.45-19.98,48.53h-7.39l-19.9-48.53-2.28-6.69v55.22h-7.39v-60.41h12.27l17.46,43.73,3.62,9.91,3.54-9.91,17.93-43.73Z"/><path d="M1414.72,300.75c6.24,0,11.06,1.65,14.47,4.96,3.41,3.3,5.11,7.84,5.11,13.61,0,5.3-1.7,9.65-5.11,13.06-3.41,3.36-8.08,5.03-14,5.03h-15.34v23.75h-8.1v-60.41h22.97ZM1414.88,330.96c3.62,0,6.42-1.02,8.42-3.07,1.99-2.05,2.99-4.9,2.99-8.57,0-8.02-3.88-12.04-11.64-12.04h-14.79v23.68h15.02Z"/><path d="M1457.19,354.64h31.46v6.53h-39.41v-60.41h7.94v53.88Z"/><path d="M1542.46,361.16l-5.58-15.5h-28.32l-5.51,15.5h-8.26l22.1-60.41h11.33l22.81,60.41h-8.57ZM1510.99,338.98h23.52l-10.7-29.81-1.1-3.78-1.1,3.78-10.62,29.81Z"/><path d="M1558.82,344.25l8.02-.79c1.47,8.39,7.34,12.58,17.62,12.58,5.3,0,9.37-.96,12.23-2.87,2.86-1.91,4.29-4.6,4.29-8.06,0-3.04-1.05-5.35-3.15-6.92-2.1-1.57-5.51-2.86-10.23-3.85l-7.71-1.57c-6.35-1.31-10.93-3.26-13.77-5.86s-4.25-6.17-4.25-10.74c0-5.35,2.01-9.56,6.02-12.62,4.01-3.07,9.56-4.6,16.64-4.6,14.16,0,22.02,5.4,23.6,16.2l-7.79.79c-.58-3.51-2.15-6.11-4.72-7.79-2.57-1.68-6.34-2.52-11.33-2.52-4.56,0-8.08.85-10.54,2.56s-3.7,4.1-3.7,7.2.89,5.11,2.67,6.53c1.78,1.47,5.09,2.7,9.91,3.7l7.63,1.49c6.61,1.36,11.39,3.42,14.36,6.17s4.44,6.33,4.44,10.74c0,5.93-2.2,10.53-6.61,13.8-4.41,3.28-10.49,4.92-18.25,4.92-14.89,0-23.36-6.16-25.41-18.49Z"/><path d="M1678.53,300.75h11.8v60.41h-7.47v-54.98l-2.2,6.45-19.98,48.53h-7.39l-19.9-48.53-2.28-6.69v55.22h-7.39v-60.41h12.27l17.46,43.73,3.62,9.91,3.54-9.91,17.93-43.73Z"/><path d="M1749.32,361.16l-5.58-15.5h-28.32l-5.51,15.5h-8.26l22.1-60.41h11.33l22.81,60.41h-8.57ZM1717.86,338.98h23.52l-10.7-29.81-1.1-3.78-1.1,3.78-10.62,29.81Z"/><path d="M1834.27,307.28h-31.86v19.59h29.26v6.37h-29.26v27.92h-7.87v-60.41h39.72v6.53Z"/><path d="M1894.05,361.16h-7.94l-2.44-14.55c-.63-3.88-1.82-6.67-3.58-8.38-1.76-1.71-4.34-2.56-7.75-2.56h-16.75v25.49h-7.87v-60.41h28.32c5.66,0,10.05,1.36,13.17,4.09,3.12,2.73,4.68,6.53,4.68,11.41,0,7.66-4.17,13.03-12.51,16.12,5.35,1.1,8.52,4.75,9.52,10.93l3.15,17.86ZM1871.24,329.23c4.77,0,8.43-1.01,10.97-3.03,2.54-2.02,3.81-5,3.81-8.93,0-6.71-4.12-10.07-12.35-10.07h-18.09v22.02h15.65Z"/><path d="M1910.41,361.16v-60.41h8.1v60.41h-8.1Z"/><path d="M1942.42,353.77c-5.35-5.82-8.02-13.42-8.02-22.81s2.67-17.07,8.02-22.89c5.3-5.82,12.43-8.73,21.4-8.73s16.12,2.91,21.47,8.73c5.3,5.87,7.95,13.5,7.95,22.89s-2.65,17.04-7.95,22.81c-5.35,5.82-12.51,8.73-21.47,8.73s-16.05-2.91-21.4-8.73ZM1963.82,355.97c6.76,0,12.04-2.28,15.81-6.84,3.78-4.56,5.66-10.62,5.66-18.17s-1.89-13.61-5.66-18.17c-3.78-4.56-9.05-6.84-15.81-6.84s-12.04,2.28-15.81,6.84c-3.78,4.56-5.66,10.62-5.66,18.17s1.89,13.61,5.66,18.17c3.78,4.56,9.05,6.84,15.81,6.84Z"/><path d="M1672.39,35.17v32.36h-63.21v173.33h-37.71V67.52h-63.21v-32.36h164.13Z"/><path d="M1674.18,163.98c0-13.66,2.03-25.63,6.09-35.92,4.06-10.29,9.44-18.84,16.16-25.68,6.74-6.82,14.44-11.97,23.16-15.43,8.7-3.45,17.61-5.19,26.71-5.19,21.38,0,38.04,6.63,50,19.89,11.98,13.26,17.97,33.04,17.97,59.36,0,1.98-.05,4.2-.14,6.68-.12,2.48-.27,4.7-.46,6.68h-102.39c.99,12.46,5.39,22.11,13.21,28.94,7.8,6.82,19.13,10.24,33.99,10.24,8.7,0,16.67-.79,23.89-2.38,7.22-1.58,12.9-3.26,17.05-5.04l4.76,29.38c-1.98.99-4.71,2.03-8.16,3.12-3.45,1.09-7.42,2.08-11.86,2.96-4.47.89-9.28,1.64-14.4,2.23-5.17.59-10.41.88-15.75.88-13.65,0-25.51-2.03-35.6-6.07-10.1-4.06-18.41-9.7-24.93-16.92-6.55-7.22-11.4-15.74-14.57-25.53-3.16-9.79-4.73-20.52-4.73-32.2ZM1778.36,147.96c0-4.95-.7-9.65-2.08-14.11-1.4-4.44-3.41-8.31-6.09-11.57-2.68-3.26-5.94-5.83-9.81-7.72-3.84-1.88-8.45-2.83-13.79-2.83s-10.39,1.04-14.54,3.12c-4.15,2.09-7.68,4.81-10.53,8.16-2.87,3.37-5.1,7.23-6.69,11.58-1.57,4.35-2.66,8.8-3.26,13.36h66.79Z"/><path d="M1888.16,146.17c4.54-4.75,9.4-9.84,14.54-15.28,5.14-5.45,10.19-10.88,15.14-16.33,4.93-5.45,9.64-10.69,14.11-15.74,4.44-5.04,8.24-9.44,11.43-13.2h42.44c-9.88,11.09-20.29,22.56-31.26,34.43-10.94,11.87-21.96,23.44-33.02,34.72,5.94,4.95,12.15,10.93,18.67,17.96s12.83,14.49,18.96,22.4c6.11,7.92,11.84,15.83,17.17,23.74,5.34,7.92,9.76,15.24,13.33,21.97h-41.57c-3.55-6.14-7.66-12.56-12.32-19.29-4.64-6.73-9.64-13.26-14.98-19.59-5.34-6.34-10.8-12.32-16.33-17.96-5.56-5.64-10.99-10.43-16.33-14.4v71.23h-35.92V16.47l35.92-5.94v135.64Z"/><path d="M685.19,240.85V35.17h130v31.75h-92.61v52.54h82.22v31.76h-82.22v89.64h-37.39Z"/><path d="M900.99,243.82c-10.7-.21-19.54-1.39-26.57-3.56-7.03-2.17-12.61-5.29-16.76-9.35-4.15-4.06-7.08-9.11-8.77-15.14-1.69-6.03-2.51-12.91-2.51-20.63V16.47l35.89-5.94v177.79c0,4.36.36,8.02,1.04,10.98.7,2.97,1.93,5.5,3.72,7.57,1.79,2.08,4.2,3.66,7.27,4.75,3.07,1.1,6.98,1.93,11.71,2.52l-5.02,29.69Z"/><path d="M986.74,81.76c11.88,0,21.86,1.49,29.98,4.46,8.12,2.97,14.59,7.13,19.44,12.46,4.86,5.34,8.31,11.82,10.39,19.44,2.08,7.62,3.12,15.98,3.12,25.07v94.09c-5.53,1.18-13.89,2.62-25.07,4.3-11.18,1.68-23.79,2.52-37.85,2.52-9.3,0-17.8-.88-25.51-2.67-7.73-1.78-14.3-4.65-19.76-8.61-5.43-3.95-9.69-9.09-12.75-15.43-3.07-6.33-4.59-14.14-4.59-23.44s1.71-16.43,5.19-22.56c3.45-6.12,8.14-11.12,14.08-14.99,5.94-3.85,12.83-6.63,20.63-8.31,7.83-1.68,15.99-2.52,24.49-2.52,3.96,0,8.12.25,12.46.75,4.35.5,9.01,1.33,13.96,2.51v-5.93c0-4.15-.51-8.12-1.5-11.87-.99-3.76-2.71-7.08-5.19-9.94-2.46-2.87-5.75-5.1-9.78-6.68-4.06-1.58-9.15-2.38-15.29-2.38-8.31,0-15.94.59-22.85,1.78-6.93,1.2-12.58,2.58-16.93,4.17l-4.44-29.09c4.54-1.58,11.18-3.16,19.88-4.75,8.72-1.58,18.02-2.38,27.9-2.38ZM989.71,215.62c11.09,0,19.49-.59,25.24-1.78v-39.78c-1.98-.59-4.86-1.18-8.62-1.78-3.74-.59-7.9-.89-12.46-.89-3.96,0-7.97.3-12,.89-4.06.59-7.73,1.68-10.99,3.26-3.26,1.59-5.89,3.82-7.87,6.68-1.98,2.87-2.97,6.49-2.97,10.83,0,8.51,2.68,14.4,8.02,17.67,5.34,3.26,12.56,4.89,21.67,4.89Z"/><path d="M1480.8,124.65c-1.67-8.79-4.73-16.32-9.2-22.55-4.44-6.23-10.58-11.09-18.41-14.55-7.8-3.45-17.75-5.19-29.83-5.19-4.73,0-9.44.51-14.08,1.49-4.66.99-9.06,2.23-13.21,3.71-4.15,1.49-7.92,3.13-11.28,4.9-2.78,1.47-4.9,2.84-6.87,4.17-3.73-3.57-7.93-6.75-13.18-9.08-7.8-3.45-17.75-5.19-29.83-5.19-4.73,0-9.44.51-14.08,1.49-4.66.99-9.06,2.23-13.21,3.71-4.15,1.49-7.92,3.13-11.28,4.9-2.78,1.47-4.9,2.84-6.87,4.17-3.73-3.57-7.93-6.75-13.18-9.08-7.8-3.45-17.75-5.19-29.83-5.19-4.73,0-9.44.51-14.08,1.49-4.66.99-9.06,2.23-13.21,3.71-4.15,1.49-7.92,3.13-11.28,4.9-3.36,1.78-6.14,3.47-8.31,5.05-4.57-4.55-10.24-8.21-17.08-10.99-6.81-2.77-15.58-4.15-26.26-4.15-12.46,0-24.3.89-35.46,2.68-11.18,1.78-20.24,3.66-27.17,5.64v150.18h35.92v-125.25c2.37-.4,5.94-.89,10.68-1.49,4.76-.59,9.11-.89,13.07-.89,11.09,0,18.65,3.61,22.71,10.83,4.06,7.23,6.09,18.95,6.09,35.18v81.62h35.92v-85.77c0-6.34-.29-12.27-.89-17.81-.6-5.54-1.69-10.79-3.26-15.74,2.56-1.78,6.43-3.6,11.57-5.48s10.58-2.83,16.33-2.83c11.28,0,18.89,3.61,22.85,10.83,3.96,7.23,5.94,18.95,5.94,35.18v81.62h35.92v-87.26c0-10.5-.85-20.13-2.54-28.95-.24-1.24-.71-2.27-1-3.46,2.55-1.67,6.14-3.38,10.96-5.14,5.14-1.88,10.58-2.83,16.33-2.83,11.28,0,18.89,3.61,22.85,10.83,3.96,7.23,5.94,18.95,5.94,35.18v81.62h35.92v-87.26c0-10.5-.85-20.13-2.54-28.95-.24-1.24-.71-2.27-1-3.46,2.55-1.67,6.14-3.38,10.96-5.14,5.14-1.88,10.58-2.83,16.33-2.83,11.28,0,18.89,3.61,22.85,10.83,3.96,7.23,5.94,18.95,5.94,35.18v81.62h35.92v-87.26c0-10.5-.85-20.13-2.54-28.95Z"/></g></svg>