<?xml version="1.0" encoding="UTF-8"?><svg id="Camada_2" xmlns="http://www.w3.org/2000/svg" viewBox="0 0 1666.67 1118.23"><defs><style>.cls-1{fill:#f080e0;}.cls-2{fill:#be40e0;}.cls-3{fill:#8c00e0;}</style></defs><g id="Camada_1-2"><path class="cls-3" d="M1598.54,927.89c-29.11-20.78-53.32-37.63-59.31-31.17-5.87,6.18,9.21,35.65,38.81,60.51,29.46,25.09,61.84,31.99,67.2,21.49,5.5-10.61-17.72-30.02-46.71-50.83Z"/><path class="cls-3" d="M1509.01,940.63c-26.42-27.8-48.1-44.6-52.67-33.5-4.44,10.93,11.55,46.45,39.79,75.81,28.17,29.57,56.49,39.81,59.1,27.13,2.74-12.71-19.87-41.58-46.23-69.44Z"/><path class="cls-3" d="M1420.13,942.04c-25-29.53-45.7-41.46-49.21-24.28,2.96,33.11,17.84,64.02,41.87,86.99,27.8,30.15,53.23,37.93,53.84,20.3-7.76-31.34-23.82-60.02-46.49-83.01Z"/><path class="cls-3" d="M1329.35,942.72c-24.76-28.09-45.62-32.8-48.22-9.26,2.75,36.1,18.81,69.89,45.06,94.83,28.16,28.46,51.75,30.65,50.89,6.83-6.95-34.66-23.49-66.67-47.73-92.4Z"/><path class="cls-3" d="M1234.92,946.15c-25.46-24.85-47.21-21.6-49.07,8.01,2.35,38.6,19.99,74.67,49.02,100.22,29.18,25.5,51.85,20.5,49.96-9.61-5.79-37.32-23.26-71.85-49.9-98.63Z"/><path class="cls-3" d="M1135.59,952.2c-26.87-20.9-50.14-9.88-51.47,25.13,1.63,40.81,21.14,78.83,53.35,103.95,30.75,22.14,53.44,9.55,50.92-26.61-4.29-39.52-23.1-76.04-52.8-102.47Z"/><path class="cls-3" d="M1033.48,967.77c-27.63-21.07-52.51-10.35-55.41,24.18.2,40.84,19.11,79.34,51.31,104.46,31.28,23.12,56.08,11.46,55.28-25-2.55-39.99-20.98-77.31-51.19-103.64Z"/><path class="cls-3" d="M925.43,986.57c-27.91-23.49-54.05-17.74-58.95,12.43-.9,39.15,16.37,76.5,46.78,101.18,31.03,26.01,58.22,20.52,59.88-12.15-1.36-38.92-18.6-75.59-47.71-101.47Z"/><path class="cls-3" d="M810.41,999.74c-27.74-25.87-54.79-25.47-61.5.04-2.14,36.95,13.28,72.74,41.6,96.57,30.22,28.43,59.22,29.41,63.33,1.39-.06-37.32-15.83-72.89-43.44-98Z"/><path class="cls-3" d="M689.94,1005.99c-26.49-29.07-53.9-35.09-62.76-14.94-4.36,34.14,8.22,68.26,33.7,91.4,28.17,31.21,58.37,39.83,65.42,17.56,2.14-35.14-11.13-69.47-36.36-94.02Z"/><path class="cls-3" d="M562.79,1001.87c-24.9-30.45-51.67-40.97-61.51-25.32-9.72,15.69,1.85,52.63,27.72,84.56,25.87,31.93,55.54,45.57,64.31,28.35,8.81-17.13-5.67-57.27-30.53-87.6Z"/><path class="cls-3" d="M432.37,988.78c-22.64-31.08-48.05-45.37-58.25-33.64-10.12,11.78-1.04,45.62,21.91,77.51,22.9,31.82,51.01,49.24,60.83,36.66,9.82-12.59-1.89-49.49-24.48-80.53Z"/><path class="cls-3" d="M301.5,968.52c-19.96-31.22-43.27-48.5-53.33-40.09-9.98,8.5-2.96,39.77,16.83,71.17,19.79,31.4,45.2,51.15,55.3,42.43,10.11-8.72,1.09-42.43-18.81-73.51Z"/><path class="cls-3" d="M173.1,943.32c-17.17-31.17-38.1-51.2-47.52-45.44-9.42,5.76-3.87,35.23,12.98,66.4,16.79,31.17,38.98,52.45,48.69,46.7,9.71-5.75,2.99-36.51-14.15-67.66Z"/><ellipse class="cls-3" cx="33.95" cy="921.02" rx="16.85" ry="63.54" transform="translate(-340.27 78.77) rotate(-21.84)"/><path class="cls-2" d="M1502.75,768.87c-15.47-28.96-29.1-51.21-35.37-46.26-6.1,4.81-1.4,36.33,15.33,67.36,16.63,31.18,37.89,47.84,42.76,40.87,4.97-7.07-7.37-32.89-22.73-61.96Z"/><path class="cls-2" d="M1433.48,759.08c-15.01-31.36-29.5-50.36-36.14-40.09-4.42,27.31,1.55,55.28,16.74,78.4,17.35,32.25,37.75,47.33,41.88,36.26-1.05-26.36-8.78-52.02-22.48-74.57Z"/><path class="cls-2" d="M1357.8,748.66c-15.62-30.92-31.99-44.08-38.97-27.86-4.61,30.31,2.41,61.25,19.66,86.6,18.79,31.15,39.06,41.69,42.77,25.39-.41-29.6-8.5-58.59-23.46-84.13Z"/><path class="cls-2" d="M1275.36,741.25c-17.17-28.61-36-34.5-43.14-12.36-4.76,32.68,3.83,65.91,23.84,92.19,20.75,28.63,41.45,33.03,44.96,10.97.4-32.11-8.51-63.65-25.66-90.79Z"/><path class="cls-2" d="M1186.13,737.71c-19.37-25.11-40.97-23.22-48.1,4.44-5,34.61,5.57,69.66,28.87,95.73,23.08,25.28,44.69,22.66,48.1-5,1.45-34.08-8.73-67.64-28.87-95.17Z"/><path class="cls-2" d="M1090.4,737.43c-22.08-20.98-46.5-11.6-53.48,20.87-5.44,36.24,7.42,72.83,34.33,97.7,25.67,21.63,48.61,11.96,52.04-21.04,2.74-35.63-9.13-70.84-32.89-97.53Z"/><path class="cls-2" d="M989.93,747.38c-23.16-20.62-48.97-11.13-56.74,20.75-6.18,35.95,6.71,72.53,34.06,96.67,26.4,21.77,51.09,12.57,55.65-20.37,3.86-35.63-8.21-71.15-32.98-97.05Z"/><path class="cls-2" d="M883.62,762.19c-23.42-22.12-49.43-16.78-57.92,11.21-6.31,34.29,5.74,69.39,31.79,92.56,26.1,23.56,52.09,19.17,57.88-10.18,4.15-34.4-7.53-68.82-31.75-93.59Z"/><path class="cls-2" d="M772.2,774.57c-23.29-23.66-49.28-22.6-58.4,1.4-6.46,32.34,4.58,65.69,29.07,87.77,25.39,25.06,52.21,25.48,59.14.14,4.51-32.79-6.51-65.81-29.81-89.31Z"/><path class="cls-2" d="M657.33,783.93c-22.21-26.05-47.81-30.38-57.92-10.88-7.49,30.03,1.59,61.77,23.84,83.29,23.7,27.13,50.81,33.51,59.4,12.9,5.62-30.84-3.78-62.52-25.32-85.31Z"/><path class="cls-2" d="M537.77,787.39c-21.15-27.04-45.93-35.16-56.24-19.36-10.24,15.75-1.48,49.97,20.58,77.76,22.06,27.79,48.5,38.03,57.85,21.44,6.19-28.64-2.1-58.5-22.19-79.83Z"/><path class="cls-2" d="M415.79,785.74c-19.7-27.75-43.32-39.24-53.54-26.82-10.14,12.35-2.77,44.31,17.37,72.47,20.14,28.16,45.29,41.6,55.02,28.75,9.73-12.85.85-46.75-18.85-74.4Z"/><path class="cls-2" d="M292.75,779.41c-18.03-28.28-40.11-42.91-49.97-33.51-9.86,9.4-3.61,39.52,14.5,67.96,18.05,28.46,41.33,44.52,51.06,34.88,9.73-9.63,2.42-41.11-15.59-69.33Z"/><path class="cls-2" d="M170.16,768.93c-16.24-28.93-36.61-46.57-45.89-39.84-9.28,6.73-3.91,35.61,12.23,64.62,16.14,29.01,37.13,47.31,46.49,40.46,9.36-6.86,3.4-36.28-12.83-65.24Z"/><ellipse class="cls-2" cx="33.79" cy="762.63" rx="17.53" ry="60.66" transform="translate(-347.59 101.34) rotate(-27.44)"/><path class="cls-1" d="M1477.09,588.78c-2.89-31.99-7.65-56.66-15.35-53.39-7.57,3.23-13.76,34.6-9.19,68.25,4.44,33.77,16.54,55.49,22.43,50.56,6.03-21.31,6.75-43.77,2.11-65.42Z"/><path class="cls-1" d="M1417.78,563.98c-4.17-32.98-12.59-53.71-22.23-44.52-12.12,24.45-14.76,52.53-7.39,78.81,6.86,33.73,20.67,51.7,27.43,41.88,6.83-24.85,7.58-50.97,2.19-76.17Z"/><path class="cls-1" d="M1348.5,543.88c-6.51-31.97-19.35-46.5-30.57-31-12.27,27.37-13.59,58.39-3.7,86.7,9.94,31.95,25.97,44.28,33.69,28.94,7.54-27.68,7.74-56.86.58-84.64Z"/><path class="cls-1" d="M1269.77,529.97c-9.75-29.37-27.26-36.29-39.64-14.59-12.33,29.49-11.74,62.8,1.64,91.84,13.44,28.92,31.95,34.53,40.58,13.4,8.28-29.79,7.38-61.38-2.58-90.64Z"/><path class="cls-1" d="M1182.37,522.26c-13.55-25.65-35.72-24.32-48.69,3.03-12.47,31.05-9.47,66.18,8.1,94.67,17.16,25.09,38.31,23.5,47.68-3.21,9.14-31.31,6.63-64.88-7.09-94.48Z"/><path class="cls-1" d="M1087.28,519.87c-17.69-21.21-44.18-11.77-57.29,20.45-12.79,32.26-6.96,68.92,15.2,95.63,20.94,20.98,44.78,12.16,54.74-19.77,10.3-32.39,5.66-67.68-12.66-96.31Z"/><path class="cls-1" d="M985.3,529.75c-19.29-20.33-46.98-10.29-60.1,21.49-12.77,31.96-6.09,68.41,17.18,93.77,22.08,20.52,47.4,11.62,57.8-20.26,10.72-32.2,5.18-67.61-14.88-94.99Z"/><path class="cls-1" d="M876.94,546.64c-11.9-14.53-33.33-16.66-47.85-4.76-5.62,4.6-9.62,10.88-11.41,17.92-11.85,30.63-4.99,65.35,17.61,89.18,10.22,14.6,30.34,18.15,44.93,7.93,6.64-4.65,11.29-11.62,13.02-19.54,10.04-31.07,3.93-65.1-16.3-90.72Z"/><path class="cls-1" d="M764.44,563.3c-9.55-15.39-29.77-20.13-45.16-10.58-5.75,3.56-10.25,8.82-12.89,15.04-10.87,29.11-4,61.88,17.64,84.17,21.64,22.81,47.35,22,57.53-2.76,9.36-29.67,2.9-62.06-17.12-85.87Z"/><path class="cls-1" d="M649.57,579.03c-19.02-24.31-44.18-26.93-56.14-6.89-10.64,27.36-4.76,58.4,15.15,79.97,20.38,24.67,45.73,29.04,56.34,8.65,9.24-28.07,3.45-58.92-15.35-81.73Z"/><path class="cls-1" d="M531.22,590.79c-18.56-25.13-42.67-31.32-53.99-14.85-9.8,25.69-4.18,54.72,14.51,74.9,19.42,25.36,44.02,33.2,54.44,16.43,8.77-26.35,3.09-55.37-14.95-76.47Z"/><path class="cls-1" d="M411.21,598.77c-17.85-25.83-40.81-35.43-51.49-22.23-10.68,13.2-4.64,44.28,13.65,70.27,18.29,25.98,41.77,36.94,51.94,23.58,10.17-13.37,3.7-45.8-14.1-71.62Z"/><path class="cls-1" d="M290.25,602.65c-16.87-26.61-38.53-39.47-48.51-29.3-9.98,10.17-4.38,39.72,12.69,66.43,17.07,26.71,39.1,40.5,48.88,30.21,9.78-10.29,3.81-40.75-13.06-67.33Z"/><path class="cls-1" d="M169.3,602.1c-15.76-27.6-35.96-43.75-45.27-36.3-9.24,7.44-4.07,35.87,11.7,63.6,15.77,27.73,36.16,44.25,45.43,36.66,9.28-7.6,3.89-36.35-11.86-63.96Z"/><ellipse class="cls-1" cx="33.73" cy="605.72" rx="18.01" ry="59.03" transform="translate(-302.51 100.77) rotate(-30.47)"/><path class="cls-2" d="M1522.12,411.2c9.66-32.11,14.1-59.95,4.97-61.12-9.02-1.17-26.65,26.9-34.62,61.32-8.1,34.45-4.85,60.49,2.48,59.39,7.44-1.17,17.41-27.37,27.17-59.59Z"/><path class="cls-2" d="M1471.94,356.98c7.27-34.36,5.25-59.08-7.9-53.03-20.42,20.36-32.51,47.61-33.91,76.42-4.35,35.32,2.96,56.87,13.02,50,15.63-21.65,25.53-46.9,28.79-73.4Z"/><path class="cls-2" d="M1406.87,315.28c3.16-34.08-6.37-52.09-22.92-38-20.34,24.61-30.96,55.82-29.87,87.73.56,33.68,12.71,48.54,25.4,35.03,16.43-25.35,25.87-54.58,27.39-84.75Z"/><path class="cls-2" d="M1327.83,288.26c-2.16-31.47-19.45-40.26-38.34-18.21-20.04,27.25-28.33,61.39-23.01,94.79,6.06,30.04,23.22,36.81,38.22,16.32,16.93-27.92,24.99-60.3,23.14-92.9Z"/><path class="cls-2" d="M1236.56,275.83c-8.19-26.98-32.66-25.35-52.9,3.83-19.83,28.61-25.06,64.87-14.14,97.92,11.71,25.13,33.67,23.21,50.4-4,17.44-29.4,23.37-64.23,16.64-97.75Z"/><path class="cls-2" d="M1135.18,276.08c-14.39-21.35-45.09-9.3-65.56,25.69-19.98,29.2-21.58,67.24-4.14,98.02,17.18,19.74,43.52,9.17,61.36-24.2,18.29-30.01,21.38-66.87,8.34-99.51Z"/><path class="cls-2" d="M1024.07,294.87c-16.77-19.52-48.39-5.76-67.8,29.08-19.24,28.96-18.86,66.73.96,95.29,18.99,18.52,46.52,6.9,63.83-26.92,17.94-29.73,19.08-66.66,3.01-97.44Z"/><path class="cls-2" d="M905.99,324.9c-17.42-19.96-47.24-9.78-64.55,21.17-17.17,28.1-15.27,63.86,4.76,89.99,19.2,19.44,46.09,11.46,61.63-19,16.11-28.79,15.41-64.04-1.84-92.16Z"/><path class="cls-2" d="M785.06,356.56c-17.82-20.7-45.9-14.68-61.29,12.06-15.05,27.07-11.92,60.6,7.88,84.42,11.84,14.84,33.46,17.28,48.31,5.44,5.05-4.03,8.86-9.39,11-15.49,14.23-27.68,11.96-60.95-5.9-86.44Z"/><path class="cls-2" d="M663.34,387.39c-8.84-15.96-28.94-21.73-44.9-12.89-5.29,2.93-9.68,7.26-12.68,12.52-13.66,25.88-10.52,57.43,7.98,80.1,18.36,22.72,43.42,24.1,56.5,2.12,12.86-26.49,10.21-57.89-6.89-81.86Z"/><path class="cls-2" d="M539.92,413.19c-17.17-23.77-41.84-27.6-54.57-9.61-11.85,24.66-8.03,53.99,9.75,74.79,17.95,23.74,41.99,29.04,53.92,11.03,11.31-25.13,7.81-54.45-9.1-76.21Z"/><path class="cls-2" d="M416.25,432.96c-16.9-24.76-40.18-32.67-51.66-18.45-10.23,23.5-5.99,50.79,10.88,70.09,17.35,24.82,40.29,33.87,51.27,19.59,9.92-23.86,5.89-51.24-10.49-71.23Z"/><path class="cls-2" d="M292.83,445.49c-16.39-25.93-38.28-37.86-48.66-27.16-10.38,10.7-5.17,40.22,11.41,66.32,16.58,26.1,38.27,38.72,48.4,27.83s5.22-41.11-11.15-66.99Z"/><path class="cls-2" d="M170.25,449.51c-15.62-27.4-36.02-43.36-45.46-35.89-9.44,7.48-4.29,36.02,11.38,63.7,15.67,27.68,35.91,43.88,45.29,36.09,9.38-7.8,4.42-36.49-11.2-63.9Z"/><ellipse class="cls-2" cx="33.76" cy="452.09" rx="17.77" ry="59.88" transform="translate(-213.71 72.24) rotate(-28.81)"/><path class="cls-3" d="M1637.91,261.53c22.23-28.71,35.73-59.36,25-66.99-10.59-7.61-39.55,14.35-59.79,47.01-20.4,32.7-26.01,61.12-17.4,64.84,8.75,3.65,29.83-16.04,52.19-44.86Z"/><path class="cls-3" d="M1595.74,169.86c18.24-34.89,21.96-65.21,5.05-64.01-16.81,1.17-44.9,34.68-59.7,71.28-14.88,36.7-13.49,61.79-.11,58.98,13.44-2.94,36.43-31.25,54.76-66.25Z"/><path class="cls-3" d="M1531.76,97.11c12.03-37.19,4.77-61.07-17.34-49.36-28.48,22.39-47.96,54.26-54.9,89.82-7.85,36.59,1.35,54.91,19.2,44.07,25.47-22.46,43.9-51.83,53.03-84.54Z"/><path class="cls-3" d="M1447.85,47.82c4.3-35.59-13.93-48.5-39.76-26.16-27.5,26.94-43.98,63.17-46.2,101.6-.14,33.11,16.9,42.23,38.58,22.55,25.59-26.95,42.15-61.2,47.39-97.99Z"/><path class="cls-3" d="M1347.05,22.75c-4.11-30.77-32.33-30.37-60.28,1.48-26.59,28.89-39.29,67.93-34.79,106.93,7.67,27.39,31.97,26.03,56.43-2.3,25.47-29.43,39.23-67.2,38.64-106.11Z"/><path class="cls-3" d="M1232.98,19.49c-12.59-23.8-49.12-9.83-77.59,29.57-26.33,29.02-34.67,70.12-21.74,107.12,14.96,20.62,45.59,8.65,71.77-27.54,25.75-30.07,35.95-70.45,27.56-109.14Z"/><path class="cls-3" d="M1105.8,43.46c-15.73-20.72-53.05-3.37-79.49,36.39-26.46,39.66-31.13,85.01-13.77,103.49,17.46,18.48,49.12,4.28,73.98-33.24,24.76-37.42,35.09-85.94,19.28-106.65Z"/><path class="cls-3" d="M970.71,85.04c-16.57-20.38-50.91-6.21-73.72,29.26-22.13,27.71-24.9,66.2-6.95,96.79,17.87,18.94,47.8,8.01,69.37-26.1,21.82-28.72,26.17-67.09,11.31-99.96Z"/><path class="cls-3" d="M834.05,131.6c-17.1-20.56-48.64-10.77-68.15,19.89-19.15,26.7-19.55,62.53-1,89.65,18.11,19.72,46.31,12.75,64.81-17.03,19-27.47,20.69-63.37,4.34-92.5Z"/><path class="cls-3" d="M698.51,178.61c-11.85-16.14-34.54-19.61-50.68-7.76-4.95,3.63-8.89,8.47-11.46,14.04-16.82,25.67-16.27,59.02,1.39,84.12,10.46,15.9,31.83,20.3,47.73,9.84,5.21-3.43,9.39-8.2,12.09-13.82,16.61-26.32,16.97-59.75.93-86.42Z"/><path class="cls-3" d="M563.54,220.25c-8.54-16.61-28.93-23.16-45.54-14.62-4.85,2.49-9.03,6.13-12.18,10.58-14.17,24.48-12,55.12,5.48,77.36,17.28,22.88,41.96,25.96,56.04,5.85,14.12-24.91,12.64-55.73-3.8-79.17Z"/><path class="cls-3" d="M430.66,254.3c-16.63-24.05-41.15-29.9-53.84-14.05-11.77,23.36-8.42,51.5,8.5,71.45,17.02,23.99,40.34,31.28,52.61,15.46,11.85-23.66,9.02-52.02-7.28-72.86Z"/><path class="cls-3" d="M300.28,278.57c-16.4-25.26-39.14-35.69-50.19-23.99-11.06,11.7-6.12,41.36,10.45,66.76,16.57,25.4,38.53,36.73,49.37,24.86,10.84-11.87,6.79-42.44-9.62-67.63Z"/><path class="cls-3" d="M172.94,290.9c-15.81-26.86-36.75-42.02-46.45-34.11-9.71,7.92-4.58,36.37,11.24,63.65,15.82,27.27,36.29,42.71,45.97,34.37,9.68-8.33,5.03-37.07-10.76-63.92Z"/><ellipse class="cls-3" cx="33.89" cy="297.27" rx="17.88" ry="59.91" transform="translate(-139.03 53.1) rotate(-28.8)"/></g></svg>