<?xml version="1.0" encoding="UTF-8"?><svg id="Camada_2" xmlns="http://www.w3.org/2000/svg" viewBox="0 0 1547.54 1381.91"><defs><style>.cls-1{fill:#f080e0;}.cls-2{fill:#be40e0;}.cls-3{fill:#8c00e0;}</style></defs><g id="Camada_1-2"><path class="cls-3" d="M1338.89,680.45c-21.35-15.24-39.1-27.59-43.49-22.86-4.31,4.53,6.75,26.15,28.46,44.37,21.61,18.4,45.35,23.46,49.28,15.76,4.03-7.78-13-22.02-34.25-37.28Z"/><path class="cls-3" d="M1273.24,689.8c-19.38-20.39-35.27-32.71-38.63-24.57-3.25,8.01,8.47,34.07,29.18,55.59,20.65,21.68,41.43,29.2,43.34,19.9,2.01-9.32-14.57-30.49-33.9-50.92Z"/><path class="cls-3" d="M1208.06,690.83c-18.34-21.66-33.51-30.4-36.09-17.8,2.17,24.28,13.08,46.95,30.7,63.79,20.38,22.11,39.03,27.82,39.48,14.88-5.69-22.99-17.47-44.01-34.1-60.87Z"/><path class="cls-3" d="M1141.49,691.33c-18.16-20.6-33.45-24.05-35.36-6.79,2.02,26.47,13.79,51.25,33.04,69.54,20.65,20.87,37.95,22.47,37.32,5.01-5.1-25.42-17.23-48.89-35-67.76Z"/><path class="cls-3" d="M1072.24,693.84c-18.67-18.23-34.62-15.84-35.99,5.88,1.72,28.31,14.66,54.76,35.94,73.5,21.4,18.7,38.03,15.04,36.64-7.05-4.24-27.37-17.06-52.69-36.6-72.33Z"/><path class="cls-3" d="M999.4,698.28c-19.71-15.33-36.77-7.25-37.74,18.43,1.19,29.93,15.5,57.81,39.12,76.23,22.55,16.23,39.19,7,37.34-19.52-3.14-28.98-16.94-55.77-38.72-75.15Z"/><path class="cls-3" d="M924.51,709.7c-20.26-15.45-38.51-7.59-40.63,17.73.15,29.95,14.02,58.18,37.63,76.61,22.94,16.96,41.12,8.4,40.54-18.34-1.87-29.33-15.39-56.69-37.54-76Z"/><path class="cls-3" d="M845.28,723.48c-20.47-17.23-39.64-13.01-43.23,9.12-.66,28.71,12.01,56.1,34.3,74.2,22.75,19.07,42.69,15.05,43.91-8.91-1-28.54-13.64-55.43-34.99-74.41Z"/><path class="cls-3" d="M760.93,733.14c-20.35-18.97-40.18-18.68-45.1.03-1.57,27.1,9.74,53.34,30.51,70.82,22.16,20.85,43.43,21.57,46.45,1.02-.04-27.37-11.61-53.45-31.85-71.87Z"/><path class="cls-3" d="M672.59,737.72c-19.43-21.32-39.53-25.73-46.03-10.96-3.2,25.04,6.03,50.06,24.71,67.02,20.66,22.89,42.81,29.21,47.98,12.88,1.57-25.77-8.16-50.94-26.67-68.95Z"/><path class="cls-3" d="M579.34,734.7c-18.26-22.33-37.89-30.04-45.11-18.57-7.13,11.5,1.36,38.6,20.33,62.01,18.97,23.42,40.73,33.42,47.16,20.79,6.46-12.56-4.16-42-22.39-64.24Z"/><path class="cls-3" d="M483.7,725.1c-16.6-22.79-35.24-33.27-42.72-24.67-7.42,8.64-.76,33.45,16.07,56.84,16.79,23.34,37.41,36.11,44.61,26.88,7.2-9.23-1.39-36.29-17.95-59.06Z"/><path class="cls-3" d="M387.73,710.25c-14.64-22.9-31.73-35.57-39.11-29.4-7.32,6.23-2.17,29.16,12.34,52.19,14.51,23.03,33.14,37.51,40.56,31.12,7.41-6.39.8-31.12-13.79-53.91Z"/><path class="cls-3" d="M293.57,691.77c-12.59-22.86-27.94-37.55-34.85-33.32-6.91,4.23-2.84,25.83,9.52,48.69,12.31,22.86,28.58,38.47,35.7,34.25,7.12-4.22,2.19-26.77-10.38-49.62Z"/><ellipse class="cls-3" cx="191.53" cy="675.41" rx="12.36" ry="46.59" transform="translate(-237.57 119.77) rotate(-21.84)"/><path class="cls-2" d="M1268.65,563.84c-11.34-21.23-21.34-37.56-25.93-33.93-4.47,3.52-1.03,26.64,11.24,49.39,12.2,22.86,27.79,35.08,31.36,29.97,3.64-5.19-5.4-24.12-16.67-45.44Z"/><path class="cls-2" d="M1217.85,556.66c-11-23-21.64-36.93-26.5-29.4-3.24,20.03,1.14,40.54,12.28,57.49,12.72,23.65,27.69,34.71,30.71,26.59-.77-19.33-6.44-38.15-16.49-54.69Z"/><path class="cls-2" d="M1162.35,549.02c-11.46-22.67-23.46-32.32-28.58-20.43-3.38,22.23,1.77,44.91,14.42,63.5,13.78,22.84,28.64,30.58,31.37,18.62-.3-21.71-6.23-42.96-17.21-61.69Z"/><path class="cls-2" d="M1101.89,543.58c-12.59-20.98-26.4-25.3-31.64-9.07-3.49,23.97,2.81,48.33,17.48,67.61,15.22,20.99,30.4,24.22,32.97,8.04.3-23.55-6.24-46.67-18.81-66.58Z"/><path class="cls-2" d="M1036.46,540.99c-14.2-18.42-30.05-17.03-35.27,3.25-3.67,25.38,4.09,51.08,21.17,70.2,16.92,18.54,32.77,16.62,35.27-3.66,1.06-24.99-6.4-49.6-21.17-69.79Z"/><path class="cls-2" d="M966.26,540.78c-16.19-15.39-34.1-8.5-39.22,15.31-3.99,26.58,5.44,53.41,25.18,71.65,18.82,15.86,35.64,8.77,38.16-15.43,2.01-26.13-6.7-51.95-24.12-71.52Z"/><path class="cls-2" d="M892.58,548.08c-16.98-15.12-35.91-8.16-41.61,15.22-4.53,26.36,4.92,53.19,24.98,70.89,19.36,15.96,37.47,9.22,40.81-14.94,2.83-26.13-6.02-52.18-24.18-71.17Z"/><path class="cls-2" d="M814.62,558.94c-17.17-16.22-36.25-12.31-42.47,8.22-4.63,25.15,4.21,50.88,23.31,67.88,19.14,17.28,38.2,14.06,42.44-7.47,3.04-25.22-5.52-50.47-23.28-68.63Z"/><path class="cls-2" d="M732.91,568.01c-17.08-17.35-36.14-16.58-42.83,1.03-4.74,23.71,3.36,48.17,21.32,64.37,18.62,18.38,38.28,18.69,43.37.1,3.3-24.04-4.78-48.26-21.86-65.5Z"/><path class="cls-2" d="M648.67,574.88c-16.29-19.1-35.06-22.28-42.48-7.98-5.49,22.02,1.17,45.3,17.48,61.08,17.38,19.9,37.26,24.58,43.56,9.46,4.12-22.62-2.77-45.85-18.56-62.56Z"/><path class="cls-2" d="M561,577.42c-15.51-19.83-33.68-25.78-41.24-14.2-7.51,11.55-1.08,36.64,15.09,57.02,16.18,20.38,35.57,27.89,42.42,15.72,4.54-21-1.54-42.9-16.27-58.54Z"/><path class="cls-2" d="M471.54,576.21c-14.45-20.35-31.77-28.77-39.27-19.67-7.43,9.06-2.03,32.5,12.74,53.15,14.77,20.65,33.21,30.5,40.35,21.08,7.14-9.42.62-34.29-13.82-54.56Z"/><path class="cls-2" d="M381.32,571.57c-13.22-20.74-29.41-31.47-36.64-24.58-7.23,6.89-2.65,28.98,10.63,49.84,13.24,20.87,30.31,32.65,37.44,25.58,7.14-7.06,1.78-30.15-11.43-50.84Z"/><path class="cls-2" d="M291.41,563.88c-11.91-21.22-26.85-34.15-33.65-29.21-6.8,4.94-2.87,26.12,8.97,47.39,11.84,21.28,27.23,34.7,34.1,29.67,6.87-5.03,2.49-26.61-9.41-47.84Z"/><ellipse class="cls-2" cx="191.41" cy="559.26" rx="12.85" ry="44.49" transform="translate(-236.16 151.1) rotate(-27.44)"/><path class="cls-1" d="M1249.83,431.77c-2.12-23.46-5.61-41.55-11.26-39.15-5.55,2.37-10.09,25.37-6.74,50.05,3.25,24.76,12.13,40.69,16.45,37.08,4.42-15.63,4.95-32.1,1.55-47.97Z"/><path class="cls-1" d="M1206.34,413.58c-3.06-24.18-9.23-39.39-16.3-32.65-8.89,17.93-10.82,38.52-5.42,57.8,5.03,24.74,15.15,37.91,20.12,30.71,5.01-18.22,5.56-37.38,1.6-55.86Z"/><path class="cls-1" d="M1155.53,398.85c-4.77-23.44-14.19-34.1-22.42-22.73-8.99,20.07-9.96,42.82-2.71,63.58,7.29,23.43,19.04,32.47,24.7,21.22,5.53-20.3,5.68-41.69.43-62.07Z"/><path class="cls-1" d="M1097.79,388.64c-7.15-21.54-19.99-26.61-29.07-10.7-9.04,21.63-8.61,46.06,1.2,67.35,9.86,21.21,23.43,25.32,29.76,9.82,6.07-21.84,5.41-45.01-1.89-66.47Z"/><path class="cls-1" d="M1033.7,382.99c-9.94-18.81-26.19-17.83-35.71,2.22-9.15,22.77-6.94,48.53,5.94,69.42,12.58,18.4,28.1,17.23,34.97-2.36,6.71-22.96,4.86-47.58-5.2-69.29Z"/><path class="cls-1" d="M963.97,381.24c-12.97-15.55-32.4-8.63-42.01,15-9.38,23.66-5.11,50.54,11.15,70.13,15.36,15.39,32.84,8.92,40.15-14.5,7.55-23.75,4.15-49.63-9.28-70.63Z"/><path class="cls-1" d="M889.18,388.48c-14.15-14.91-34.45-7.54-44.07,15.76-9.36,23.44-4.47,50.17,12.6,68.76,16.19,15.05,34.76,8.52,42.39-14.86,7.86-23.62,3.8-49.58-10.91-69.66Z"/><path class="cls-1" d="M809.72,400.87c-8.73-10.65-24.44-12.22-35.09-3.49-4.12,3.37-7.05,7.98-8.37,13.14-8.69,22.46-3.66,47.92,12.91,65.4,7.49,10.71,22.25,13.31,32.95,5.82,4.87-3.41,8.28-8.52,9.55-14.33,7.37-22.78,2.88-47.74-11.95-66.53Z"/><path class="cls-1" d="M727.22,413.09c-7-11.29-21.83-14.76-33.12-7.76-4.21,2.61-7.52,6.47-9.46,11.03-7.97,21.35-2.94,45.38,12.94,61.73,15.87,16.73,34.73,16.13,42.19-2.02,6.86-21.76,2.13-45.51-12.55-62.97Z"/><path class="cls-1" d="M642.98,424.62c-13.95-17.83-32.4-19.75-41.17-5.05-7.81,20.07-3.49,42.83,11.11,58.65,14.94,18.09,33.54,21.29,41.31,6.34,6.78-20.59,2.53-43.21-11.26-59.93Z"/><path class="cls-1" d="M556.19,433.25c-13.61-18.43-31.29-22.97-39.59-10.89-7.19,18.84-3.06,40.13,10.64,54.92,14.24,18.6,32.28,24.34,39.92,12.05,6.43-19.32,2.27-40.6-10.97-56.08Z"/><path class="cls-1" d="M468.18,439.1c-13.09-18.94-29.92-25.98-37.76-16.3-7.83,9.68-3.4,32.48,10.01,51.53,13.41,19.06,30.63,27.09,38.09,17.29,7.46-9.8,2.71-33.59-10.34-52.52Z"/><path class="cls-1" d="M379.48,441.94c-12.37-19.51-28.25-28.95-35.57-21.49-7.32,7.46-3.21,29.13,9.3,48.71,12.51,19.59,28.68,29.7,35.84,22.15,7.17-7.55,2.79-29.88-9.57-49.38Z"/><path class="cls-1" d="M290.78,441.54c-11.56-20.24-26.37-32.08-33.2-26.62-6.78,5.45-2.98,26.31,8.58,46.64,11.56,20.33,26.51,32.45,33.32,26.88,6.8-5.57,2.85-26.66-8.7-46.9Z"/><ellipse class="cls-1" cx="191.36" cy="444.2" rx="13.21" ry="43.29" transform="translate(-198.83 158.39) rotate(-30.47)"/><path class="cls-2" d="M1282.85,301.55c7.09-23.54,10.34-43.96,3.64-44.82-6.61-.86-19.55,19.72-25.39,44.97-5.94,25.26-3.56,44.36,1.82,43.55,5.45-.86,12.76-20.07,19.93-43.7Z"/><path class="cls-2" d="M1246.05,261.79c5.33-25.19,3.85-43.33-5.79-38.89-14.98,14.93-23.84,34.92-24.87,56.04-3.19,25.9,2.17,41.7,9.55,36.67,11.46-15.88,18.72-34.39,21.11-53.82Z"/><path class="cls-2" d="M1198.33,231.21c2.32-24.99-4.67-38.2-16.81-27.87-14.91,18.05-22.71,40.93-21.9,64.33.41,24.7,9.32,35.6,18.62,25.69,12.05-18.59,18.97-40.03,20.08-62.15Z"/><path class="cls-2" d="M1140.37,211.39c-1.59-23.08-14.26-29.53-28.12-13.35-14.69,19.98-20.77,45.02-16.88,69.52,4.44,22.03,17.03,26.99,28.02,11.96,12.41-20.47,18.33-44.22,16.97-68.12Z"/><path class="cls-2" d="M1073.44,202.27c-6.01-19.79-23.95-18.59-38.79,2.81-14.54,20.98-18.38,47.57-10.37,71.81,8.58,18.43,24.69,17.02,36.96-2.93,12.79-21.56,17.14-47.1,12.2-71.68Z"/><path class="cls-2" d="M999.1,202.46c-10.55-15.66-33.07-6.82-48.08,18.84-14.65,21.42-15.83,49.31-3.03,71.88,12.6,14.48,31.91,6.73,45-17.75,13.41-22,15.68-49.04,6.12-72.97Z"/><path class="cls-2" d="M917.62,216.24c-12.3-14.31-35.49-4.22-49.72,21.32-14.11,21.24-13.83,48.93.7,69.88,13.93,13.58,34.12,5.06,46.81-19.74,13.16-21.8,13.99-48.89,2.21-71.46Z"/><path class="cls-2" d="M831.02,238.26c-12.78-14.64-34.64-7.17-47.34,15.52-12.59,20.61-11.2,46.83,3.49,65.99,14.08,14.25,33.8,8.4,45.19-13.94,11.82-21.11,11.3-46.96-1.35-67.58Z"/><path class="cls-2" d="M742.34,261.48c-13.06-15.18-33.66-10.76-44.95,8.85-11.04,19.85-8.74,44.44,5.78,61.91,8.68,10.88,24.54,12.67,35.43,3.99,3.7-2.95,6.5-6.89,8.07-11.36,10.43-20.3,8.77-44.7-4.33-63.39Z"/><path class="cls-2" d="M653.08,284.09c-6.48-11.7-21.23-15.93-32.93-9.45-3.88,2.15-7.1,5.33-9.3,9.18-10.02,18.98-7.71,42.11,5.85,58.74,13.46,16.66,31.84,17.68,41.43,1.56,9.43-19.43,7.49-42.45-5.06-60.03Z"/><path class="cls-2" d="M562.57,303.01c-12.59-17.43-30.69-20.24-40.02-7.05-8.69,18.09-5.89,39.6,7.15,54.85,13.16,17.41,30.79,21.3,39.54,8.09,8.29-18.43,5.73-39.93-6.68-55.89Z"/><path class="cls-2" d="M471.88,317.5c-12.39-18.16-29.47-23.96-37.88-13.53-7.5,17.23-4.39,37.25,7.98,51.4,12.72,18.2,29.55,24.84,37.6,14.37,7.27-17.5,4.32-37.58-7.69-52.24Z"/><path class="cls-2" d="M381.37,326.69c-12.02-19.02-28.07-27.76-35.68-19.91-7.61,7.85-3.79,29.5,8.37,48.63,12.16,19.14,28.06,28.39,35.49,20.41,7.43-7.99,3.83-30.14-8.18-49.12Z"/><path class="cls-2" d="M291.48,329.64c-11.46-20.09-26.42-31.8-33.34-26.32-6.92,5.48-3.15,26.41,8.34,46.71,11.49,20.3,26.33,32.18,33.21,26.46,6.88-5.72,3.24-26.76-8.21-46.86Z"/><ellipse class="cls-2" cx="191.39" cy="331.53" rx="13.03" ry="43.91" transform="translate(-136.09 133.29) rotate(-28.81)"/><path class="cls-3" d="M1367.77,191.79c16.3-21.05,26.2-43.53,18.34-49.13-7.76-5.58-29,10.52-43.85,34.48-14.96,23.98-19.07,44.82-12.76,47.55,6.41,2.68,21.88-11.76,38.27-32.9Z"/><path class="cls-3" d="M1336.84,124.57c13.37-25.59,16.1-47.82,3.7-46.94-12.33.86-32.93,25.43-43.78,52.27-10.91,26.92-9.9,45.31-.08,43.26,9.86-2.15,26.72-22.92,40.16-48.58Z"/><path class="cls-3" d="M1289.92,71.21c8.82-27.27,3.5-44.78-12.71-36.19-20.88,16.42-35.17,39.79-40.26,65.87-5.75,26.83.99,40.27,14.08,32.32,18.68-16.47,32.19-38.01,38.89-61.99Z"/><path class="cls-3" d="M1228.39,35.07c3.16-26.1-10.22-35.57-29.16-19.19-20.17,19.76-32.25,46.32-33.88,74.51-.1,24.28,12.4,30.97,28.29,16.53,18.76-19.76,30.91-44.88,34.75-71.86Z"/><path class="cls-3" d="M1154.47,16.68c-3.02-22.56-23.71-22.27-44.21,1.08-19.5,21.19-28.81,49.81-25.51,78.42,5.62,20.08,23.44,19.09,41.38-1.69,18.68-21.58,28.77-49.28,28.33-77.81Z"/><path class="cls-3" d="M1070.81,14.3c-9.23-17.45-36.02-7.21-56.9,21.68-19.31,21.28-25.43,51.42-15.95,78.55,10.97,15.12,33.43,6.35,52.63-20.2,18.88-22.05,26.36-51.67,20.21-80.04Z"/><path class="cls-3" d="M977.55,31.87c-11.54-15.2-38.9-2.47-58.29,26.69-19.4,29.08-22.83,62.34-10.1,75.9,12.8,13.55,36.02,3.14,54.25-24.37,18.16-27.44,25.73-63.03,14.14-78.21Z"/><path class="cls-3" d="M878.48,62.36c-12.15-14.95-37.34-4.55-54.06,21.46-16.23,20.32-18.26,48.55-5.1,70.98,13.11,13.89,35.05,5.88,50.87-19.14,16-21.06,19.19-49.2,8.29-73.3Z"/><path class="cls-3" d="M778.27,96.51c-12.54-15.08-35.67-7.9-49.98,14.58-14.05,19.58-14.34,45.85-.73,65.74,13.28,14.46,33.96,9.35,47.53-12.49,13.93-20.15,15.17-46.47,3.18-67.83Z"/><path class="cls-3" d="M678.87,130.98c-8.69-11.84-25.33-14.38-37.17-5.69-3.63,2.67-6.52,6.21-8.41,10.3-12.34,18.83-11.93,43.28,1.02,61.69,7.67,11.66,23.35,14.89,35,7.21,3.82-2.51,6.88-6.02,8.87-10.13,12.18-19.3,12.45-43.82.68-63.38Z"/><path class="cls-3" d="M579.89,161.52c-6.26-12.18-21.21-16.98-33.4-10.72-3.56,1.83-6.62,4.49-8.93,7.76-10.39,17.95-8.8,40.42,4.02,56.73,12.67,16.78,30.77,19.04,41.09,4.29,10.36-18.27,9.27-40.87-2.79-58.06Z"/><path class="cls-3" d="M482.45,186.48c-12.2-17.64-30.18-21.93-39.48-10.3-8.63,17.13-6.18,37.77,6.23,52.4,12.48,17.59,29.59,22.94,38.58,11.34,8.69-17.35,6.61-38.15-5.34-53.43Z"/><path class="cls-3" d="M386.83,204.28c-12.02-18.53-28.7-26.17-36.81-17.59-8.11,8.58-4.49,30.33,7.66,48.96,12.15,18.62,28.25,26.93,36.2,18.23,7.95-8.7,4.98-31.12-7.05-49.6Z"/><path class="cls-3" d="M293.45,213.32c-11.59-19.7-26.95-30.82-34.07-25.01-7.12,5.81-3.36,26.67,8.25,46.68,11.6,20,26.61,31.32,33.71,25.21,7.1-6.11,3.69-27.18-7.89-46.87Z"/><ellipse class="cls-3" cx="191.48" cy="218" rx="13.11" ry="43.93" transform="translate(-81.34 119.22) rotate(-28.8)"/><path d="M6.49,1335.38l9.49-.93c1.74,9.93,8.69,14.89,20.85,14.89,6.27,0,11.09-1.13,14.47-3.4,3.38-2.26,5.07-5.44,5.07-9.54,0-3.6-1.24-6.33-3.72-8.19-2.48-1.86-6.51-3.38-12.1-4.56l-9.12-1.86c-7.51-1.55-12.94-3.86-16.29-6.93-3.35-3.07-5.03-7.31-5.03-12.7,0-6.33,2.37-11.31,7.12-14.94,4.75-3.63,11.31-5.44,19.68-5.44,16.75,0,26.06,6.39,27.92,19.17l-9.21.93c-.68-4.16-2.54-7.23-5.58-9.21-3.04-1.99-7.51-2.98-13.4-2.98-5.4,0-9.55,1.01-12.47,3.03-2.92,2.02-4.37,4.85-4.37,8.51s1.06,6.05,3.16,7.72c2.11,1.74,6.02,3.2,11.73,4.38l9.03,1.77c7.82,1.61,13.48,4.05,16.98,7.3,3.51,3.26,5.26,7.49,5.26,12.7,0,7.01-2.61,12.46-7.82,16.33-5.21,3.88-12.41,5.82-21.59,5.82-17.62,0-27.64-7.29-30.06-21.87Z"/><path d="M89.96,1346.64c-6.33-6.89-9.49-15.88-9.49-26.99s3.16-20.2,9.49-27.08c6.27-6.89,14.7-10.33,25.31-10.33s19.08,3.44,25.41,10.33c6.27,6.95,9.4,15.98,9.4,27.08s-3.13,20.16-9.4,26.99c-6.33,6.89-14.8,10.33-25.41,10.33s-18.98-3.44-25.31-10.33ZM115.27,1349.25c8,0,14.24-2.7,18.71-8.1,4.47-5.4,6.7-12.56,6.7-21.5s-2.23-16.1-6.7-21.5c-4.47-5.4-10.7-8.1-18.71-8.1s-14.24,2.7-18.71,8.1c-4.47,5.4-6.7,12.56-6.7,21.5s2.23,16.1,6.7,21.5c4.47,5.4,10.7,8.1,18.71,8.1Z"/><path d="M178.37,1347.66h37.23v7.72h-46.62v-71.47h9.4v63.75Z"/><path d="M234.25,1350.45c-4.56-4.34-6.84-11.11-6.84-20.29v-46.25h9.59v47c0,6.27,1.47,10.81,4.42,13.63,2.95,2.82,7.74,4.23,14.38,4.23s11.42-1.4,14.33-4.19c2.92-2.79,4.37-7.35,4.37-13.68v-47h9.68v46.25c0,9.06-2.34,15.79-7.03,20.2-4.68,4.4-11.8,6.61-21.36,6.61s-16.98-2.17-21.54-6.52Z"/><path d="M312.37,1346.92c-6.27-6.76-9.4-15.95-9.4-27.55s3.16-20.69,9.49-27.27c6.33-6.58,14.46-9.87,24.38-9.87,7.76,0,14.29,1.8,19.59,5.4,5.3,3.6,8.98,8.69,11.03,15.26l-9.03,1.02c-3.66-9.06-10.92-13.59-21.78-13.59-7.38,0-13.25,2.48-17.59,7.45-4.34,4.96-6.51,12.04-6.51,21.22s2.17,16.64,6.51,21.82c4.34,5.18,10.27,7.77,17.78,7.77,12.04,0,19.57-5.33,22.61-16.01l8.56,1.02c-1.92,7.45-5.6,13.21-11.03,17.31-5.43,4.09-12.14,6.14-20.15,6.14-10.11,0-18.27-3.38-24.48-10.14ZM327.54,1381.91v-6.14h6.7c4.9,0,7.35-1.33,7.35-4,0-2.11-1.43-3.16-4.28-3.16h-9.77v-5.58h11.63c3.35,0,5.92.74,7.72,2.23,1.8,1.49,2.7,3.63,2.7,6.42,0,3.29-1.26,5.82-3.77,7.59-2.51,1.77-6.1,2.65-10.75,2.65h-7.54Z"/><path d="M391.29,1346.64c-6.33-6.89-9.49-15.88-9.49-26.99s3.16-20.2,9.49-27.08c6.27-6.89,14.7-10.33,25.31-10.33s19.08,3.44,25.41,10.33c6.27,6.95,9.4,15.98,9.4,27.08s-3.13,20.16-9.4,26.99c-6.33,6.89-14.8,10.33-25.41,10.33s-18.98-3.44-25.31-10.33ZM416.6,1349.25c8,0,14.24-2.7,18.71-8.1,4.47-5.4,6.7-12.56,6.7-21.5s-2.23-16.1-6.7-21.5c-4.47-5.4-10.7-8.1-18.71-8.1s-14.24,2.7-18.71,8.1c-4.47,5.4-6.7,12.56-6.7,21.5s2.23,16.1,6.7,21.5c4.47,5.4,10.7,8.1,18.71,8.1ZM396.68,1274.42c0-5.21,1.05-9.17,3.16-11.87,2.11-2.7,4.99-4.05,8.65-4.05,1.99,0,3.83.4,5.54,1.21,1.71.81,3.02,1.8,3.96,2.98,2.17,2.79,4.34,4.19,6.51,4.19,1.49,0,2.57-.64,3.26-1.91s1.09-3.4,1.21-6.38h7.54c0,5.27-1.02,9.24-3.07,11.91s-4.96,4-8.75,4c-4.03,0-7.13-1.39-9.31-4.19-2.17-2.79-4.4-4.19-6.7-4.19-1.49,0-2.57.63-3.26,1.91-.68,1.27-1.09,3.4-1.21,6.38h-7.54Z"/><path d="M479.6,1347.66h40.48v7.72h-49.79v-71.47h49.23v7.72h-39.92v23.08h36.85v7.72h-36.85v25.22Z"/><path d="M532.55,1335.38l9.49-.93c1.74,9.93,8.69,14.89,20.85,14.89,6.27,0,11.09-1.13,14.47-3.4,3.38-2.26,5.07-5.44,5.07-9.54,0-3.6-1.24-6.33-3.72-8.19-2.48-1.86-6.51-3.38-12.1-4.56l-9.12-1.86c-7.51-1.55-12.94-3.86-16.29-6.93-3.35-3.07-5.03-7.31-5.03-12.7,0-6.33,2.37-11.31,7.12-14.94,4.75-3.63,11.31-5.44,19.68-5.44,16.75,0,26.06,6.39,27.92,19.17l-9.21.93c-.68-4.16-2.54-7.23-5.58-9.21-3.04-1.99-7.51-2.98-13.4-2.98-5.4,0-9.55,1.01-12.47,3.03-2.92,2.02-4.37,4.85-4.37,8.51s1.06,6.05,3.16,7.72c2.11,1.74,6.02,3.2,11.73,4.38l9.03,1.77c7.82,1.61,13.48,4.05,16.98,7.3,3.51,3.26,5.26,7.49,5.26,12.7,0,7.01-2.61,12.46-7.82,16.33-5.21,3.88-12.41,5.82-21.59,5.82-17.62,0-27.64-7.29-30.06-21.87Z"/><path d="M648.41,1347.66h40.48v7.72h-49.79v-71.47h49.23v7.72h-39.92v23.08h36.85v7.72h-36.85v25.22Z"/><path d="M770.6,1283.92h13.96v71.47h-8.84v-65.05l-2.61,7.63-23.64,57.42h-8.75l-23.54-57.42-2.7-7.91v65.33h-8.75v-71.47h14.52l20.66,51.74,4.28,11.73,4.19-11.73,21.22-51.74Z"/><path d="M863.09,1283.92c7.38,0,13.09,1.95,17.12,5.86,4.03,3.91,6.05,9.28,6.05,16.1,0,6.27-2.02,11.42-6.05,15.45-4.03,3.97-9.55,5.96-16.57,5.96h-18.15v28.11h-9.58v-71.47h27.17ZM863.28,1319.65c4.28,0,7.6-1.21,9.96-3.63,2.36-2.42,3.54-5.8,3.54-10.14,0-9.49-4.59-14.24-13.77-14.24h-17.5v28.01h17.78Z"/><path d="M913.34,1347.66h37.22v7.72h-46.62v-71.47h9.4v63.75Z"/><path d="M1014.22,1355.39l-6.61-18.33h-33.5l-6.51,18.33h-9.77l26.15-71.47h13.4l26.99,71.47h-10.14ZM977,1329.14h27.83l-12.66-35.27-1.3-4.47-1.3,4.47-12.56,35.27Z"/><path d="M1033.57,1335.38l9.49-.93c1.74,9.93,8.69,14.89,20.85,14.89,6.27,0,11.09-1.13,14.47-3.4,3.38-2.26,5.07-5.44,5.07-9.54,0-3.6-1.24-6.33-3.72-8.19s-6.51-3.38-12.1-4.56l-9.12-1.86c-7.51-1.55-12.94-3.86-16.29-6.93-3.35-3.07-5.03-7.31-5.03-12.7,0-6.33,2.37-11.31,7.12-14.94,4.75-3.63,11.31-5.44,19.68-5.44,16.75,0,26.06,6.39,27.92,19.17l-9.21.93c-.68-4.16-2.54-7.23-5.58-9.21-3.04-1.99-7.51-2.98-13.4-2.98-5.4,0-9.55,1.01-12.47,3.03-2.92,2.02-4.37,4.85-4.37,8.51s1.05,6.05,3.16,7.72c2.11,1.74,6.02,3.2,11.73,4.38l9.03,1.77c7.82,1.61,13.48,4.05,16.98,7.3,3.51,3.26,5.26,7.49,5.26,12.7,0,7.01-2.61,12.46-7.82,16.33-5.21,3.88-12.41,5.82-21.59,5.82-17.62,0-27.64-7.29-30.06-21.87Z"/><path d="M1175.21,1283.92h13.96v71.47h-8.84v-65.05l-2.61,7.63-23.64,57.42h-8.75l-23.54-57.42-2.7-7.91v65.33h-8.75v-71.47h14.52l20.66,51.74,4.28,11.73,4.19-11.73,21.22-51.74Z"/><path d="M1258.97,1355.39l-6.61-18.33h-33.5l-6.51,18.33h-9.77l26.15-71.47h13.4l26.99,71.47h-10.14ZM1221.74,1329.14h27.83l-12.66-35.27-1.3-4.47-1.3,4.47-12.56,35.27Z"/><path d="M1359.47,1291.64h-37.69v23.17h34.62v7.54h-34.62v33.04h-9.31v-71.47h47v7.72Z"/><path d="M1430.2,1355.39h-9.4l-2.89-17.22c-.74-4.59-2.16-7.89-4.23-9.91-2.08-2.02-5.13-3.02-9.17-3.02h-19.82v30.15h-9.31v-71.47h33.5c6.7,0,11.9,1.61,15.59,4.84,3.69,3.23,5.54,7.72,5.54,13.49,0,9.06-4.93,15.42-14.8,19.08,6.33,1.3,10.08,5.62,11.26,12.94l3.72,21.12ZM1403.21,1317.6c5.65,0,9.97-1.19,12.98-3.58,3.01-2.39,4.51-5.91,4.51-10.56,0-7.94-4.87-11.91-14.61-11.91h-21.41v26.06h18.52Z"/><path d="M1449.55,1355.39v-71.47h9.58v71.47h-9.58Z"/><path d="M1487.42,1346.64c-6.33-6.89-9.49-15.88-9.49-26.99s3.16-20.2,9.49-27.08c6.27-6.89,14.7-10.33,25.31-10.33s19.08,3.44,25.41,10.33c6.27,6.95,9.4,15.98,9.4,27.08s-3.13,20.16-9.4,26.99c-6.33,6.89-14.8,10.33-25.41,10.33s-18.99-3.44-25.31-10.33ZM1512.74,1349.25c8,0,14.24-2.7,18.71-8.1,4.47-5.4,6.7-12.56,6.7-21.5s-2.23-16.1-6.7-21.5c-4.47-5.4-10.7-8.1-18.71-8.1s-14.24,2.7-18.71,8.1-6.7,12.56-6.7,21.5,2.23,16.1,6.7,21.5c4.47,5.4,10.7,8.1,18.71,8.1Z"/><path d="M1167.96,969.7v38.28h-74.79v205.07h-44.61v-205.07h-74.79v-38.28h194.18Z"/><path d="M1170.07,1122.11c0-16.16,2.4-30.32,7.2-42.49,4.8-12.17,11.17-22.29,19.12-30.38,7.97-8.07,17.09-14.16,27.41-18.26,10.29-4.09,20.83-6.14,31.61-6.14,25.29,0,45.01,7.84,59.16,23.53,14.17,15.69,21.26,39.09,21.26,70.23,0,2.34-.06,4.97-.17,7.9-.14,2.93-.31,5.56-.54,7.9h-121.14c1.17,14.75,6.37,26.16,15.63,34.24,9.23,8.07,22.63,12.12,40.21,12.12,10.29,0,19.72-.93,28.26-2.81,8.54-1.87,15.26-3.86,20.18-5.96l5.63,34.76c-2.34,1.17-5.57,2.4-9.66,3.69-4.09,1.29-8.77,2.46-14.03,3.5-5.29,1.06-10.97,1.94-17.03,2.64-6.12.7-12.32,1.04-18.63,1.04-16.15,0-30.18-2.4-42.12-7.19-11.95-4.8-21.78-11.47-29.49-20.02-7.74-8.54-13.49-18.62-17.23-30.21-3.74-11.59-5.6-24.28-5.6-38.09ZM1293.33,1103.15c0-5.86-.83-11.42-2.46-16.69-1.66-5.26-4.03-9.83-7.2-13.69-3.17-3.86-7.03-6.9-11.6-9.13-4.54-2.23-10-3.34-16.32-3.34s-12.29,1.23-17.2,3.69c-4.92,2.47-9.09,5.69-12.46,9.66-3.4,3.99-6.03,8.56-7.92,13.7-1.86,5.14-3.14,10.42-3.86,15.8h79.02Z"/><path d="M1423.24,1101.03c5.37-5.62,11.12-11.65,17.2-18.08,6.09-6.44,12.06-12.87,17.92-19.32,5.83-6.44,11.4-12.65,16.69-18.62,5.26-5.96,9.74-11.17,13.52-15.62h50.21c-11.69,13.12-24.01,26.69-36.98,40.74-12.95,14.05-25.98,27.73-39.07,41.08,7.03,5.86,14.37,12.93,22.09,21.25,7.72,8.32,15.17,17.15,22.43,26.51,7.23,9.37,14,18.73,20.32,28.09,6.32,9.37,11.55,18.03,15.77,25.99h-49.18c-4.2-7.26-9.06-14.86-14.57-22.82-5.49-7.96-11.4-15.69-17.72-23.18-6.32-7.5-12.77-14.57-19.32-21.25-6.57-6.67-13-12.35-19.32-17.03v84.27h-42.49v-265.47l42.49-7.03v160.48Z"/><path d="M0,1213.05v-243.35h153.8v37.56H44.24v62.16h97.28v37.58H44.24v106.05H0Z"/><path d="M255.31,1216.57c-12.66-.24-23.12-1.64-31.44-4.22-8.32-2.57-14.92-6.26-19.83-11.06-4.92-4.8-8.37-10.77-10.37-17.92-2-7.13-2.97-15.27-2.97-24.41v-211.39l42.47-7.03v210.34c0,5.16.43,9.49,1.23,12.99.83,3.52,2.29,6.5,4.4,8.96,2.11,2.46,4.97,4.33,8.6,5.62,3.63,1.3,8.26,2.29,13.86,2.99l-5.94,35.12Z"/><path d="M356.76,1024.83c14.06,0,25.86,1.76,35.46,5.27,9.6,3.52,17.26,8.43,23,14.75,5.74,6.32,9.83,13.99,12.29,23,2.46,9.02,3.69,18.9,3.69,29.66v111.32c-6.54,1.4-16.43,3.1-29.66,5.09s-28.15,2.99-44.78,2.99c-11,0-21.06-1.04-30.18-3.16-9.14-2.1-16.92-5.5-23.38-10.19-6.43-4.67-11.46-10.76-15.09-18.26-3.63-7.49-5.43-16.73-5.43-27.73s2.03-19.43,6.14-26.69c4.09-7.24,9.63-13.16,16.66-17.73,7.03-4.56,15.17-7.84,24.41-9.83,9.26-1.99,18.92-2.99,28.98-2.99,4.69,0,9.6.3,14.75.89s10.66,1.57,16.52,2.97v-7.02c0-4.92-.6-9.6-1.77-14.05-1.17-4.44-3.2-8.37-6.14-11.76-2.91-3.4-6.8-6.03-11.57-7.9-4.8-1.87-10.83-2.81-18.09-2.81-9.83,0-18.86.7-27.03,2.1-8.2,1.41-14.89,3.06-20.03,4.93l-5.26-34.42c5.37-1.87,13.23-3.74,23.52-5.62,10.32-1.87,21.32-2.81,33.01-2.81ZM360.28,1183.2c13.12,0,23.06-.7,29.86-2.1v-47.07c-2.34-.7-5.74-1.4-10.2-2.1-4.43-.7-9.34-1.06-14.75-1.06-4.69,0-9.43.36-14.2,1.06-4.8.7-9.14,1.99-13,3.86-3.86,1.89-6.97,4.52-9.32,7.9-2.34,3.4-3.52,7.67-3.52,12.82,0,10.07,3.17,17.03,9.49,20.9,6.32,3.86,14.86,5.79,25.63,5.79Z"/><path d="M941.28,1075.57c-1.97-10.4-5.6-19.3-10.89-26.68-5.26-7.37-12.52-13.12-21.78-17.22-9.23-4.09-21-6.14-35.29-6.14-5.6,0-11.17.6-16.66,1.76-5.52,1.17-10.72,2.64-15.63,4.39-4.92,1.76-9.37,3.7-13.35,5.8-3.28,1.74-5.8,3.35-8.13,4.94-4.41-4.22-9.38-7.99-15.59-10.74-9.23-4.09-21-6.14-35.29-6.14-5.6,0-11.17.6-16.66,1.76-5.52,1.17-10.72,2.64-15.63,4.39-4.92,1.76-9.37,3.7-13.35,5.8-3.28,1.74-5.8,3.35-8.13,4.94-4.41-4.22-9.38-7.99-15.59-10.74-9.23-4.09-21-6.14-35.29-6.14-5.6,0-11.17.6-16.66,1.76-5.52,1.17-10.72,2.64-15.63,4.39-4.92,1.76-9.37,3.7-13.35,5.8-3.97,2.1-7.26,4.1-9.83,5.97-5.4-5.39-12.12-9.72-20.2-13-8.06-3.27-18.43-4.92-31.06-4.92-14.75,0-28.75,1.06-41.95,3.17-13.23,2.1-23.95,4.33-32.15,6.67v177.68h42.49v-148.19c2.8-.47,7.03-1.06,12.63-1.76,5.63-.7,10.77-1.06,15.46-1.06,13.12,0,22.06,4.27,26.86,12.82,4.8,8.56,7.2,22.42,7.2,41.62v96.56h42.49v-101.48c0-7.5-.34-14.52-1.06-21.08-.71-6.56-2-12.76-3.86-18.62,3.03-2.1,7.6-4.26,13.69-6.49,6.09-2.23,12.52-3.34,19.32-3.34,13.35,0,22.35,4.27,27.03,12.82,4.69,8.56,7.03,22.42,7.03,41.62v96.56h42.49v-103.24c0-12.42-1-23.82-3-34.25-.28-1.47-.84-2.68-1.19-4.09,3.02-1.97,7.26-3.99,12.96-6.08,6.09-2.23,12.52-3.34,19.32-3.34,13.35,0,22.35,4.27,27.03,12.82,4.69,8.56,7.03,22.42,7.03,41.62v96.56h42.49v-103.24c0-12.42-1-23.82-3-34.25-.28-1.47-.84-2.68-1.19-4.09,3.02-1.97,7.26-3.99,12.96-6.08,6.09-2.23,12.52-3.34,19.32-3.34,13.35,0,22.35,4.27,27.03,12.82,4.69,8.56,7.03,22.42,7.03,41.62v96.56h42.49v-103.24c0-12.42-1-23.82-3-34.25Z"/></g></svg>